<?xml version="1.0" encoding="iso-8859-1"?>
<!-- Generator: Adobe Illustrator 19.0.0, SVG Export Plug-In . SVG Version: 6.00 Build 0)  -->
<svg xmlns="http://www.w3.org/2000/svg" xmlns:xlink="http://www.w3.org/1999/xlink" version="1.1" id="Layer_1" x="0px" y="0px" viewBox="0 0 512.001 512.001" style="enable-background:new 0 0 512.001 512.001;" xml:space="preserve">
<g>
	<g>
		<path d="M375.309,281.523c-0.451-2.79-2.411-5.099-5.091-5.997l-71.283-23.88v-13.531c0-0.004-0.001-67.001-0.001-67.001    c0-4.199-3.404-7.602-7.602-7.602h-63.325v-16.186c0-2.261-1.009-4.405-2.749-5.85c-1.376-1.141-3.098-1.752-4.856-1.752    c-0.012,0-0.024,0-0.038,0h-70.789c-1.821-0.025-3.613,0.605-5.025,1.801c-1.705,1.445-2.688,3.566-2.688,5.801v14.356H78.536    c-4.199,0-7.602,3.404-7.602,7.602v18.015H7.677c-1.409-0.015-2.851,0.373-4.103,1.156c-2.322,1.452-3.641,4.002-3.571,6.647    v155.031c0,13.076,1.142,26.174,3.368,39.046c-0.618,0.416-1.185,0.915-1.665,1.506c-1.443,1.775-2.011,4.107-1.544,6.346    l11.027,52.925c0.735,3.526,3.842,6.052,7.442,6.052h7.298c7.095,13.626,15.565,26.57,25.25,38.521    c1.443,1.781,3.614,2.816,5.907,2.816c0.004,0,0.009,0,0.013,0l207.432-0.368c0.524-0.001,1.046-0.056,1.559-0.164    c30.818-6.517,58.715-23.584,78.551-48.055c19.835-24.472,30.76-55.3,30.76-86.805v-78.938    C375.42,282.522,375.389,282.022,375.309,281.523z M298.934,267.683l61.261,20.521v24.525    c-22.963-25.446-48.817-32.686-61.261-34.74V267.683z M228.006,178.718h55.724v22.743c-21.367-14.646-43.988-17.325-55.724-17.603    V178.718z M157.066,154.929h55.736v0.001v16.107c0,0.026-0.004,0.052-0.004,0.078s0.004,0.052,0.004,0.078v8.41    c-21.286-14.701-43.869-17.475-55.736-17.791V154.929z M86.138,176.887h55.723v23.465c-21.284-14.694-43.857-17.473-55.723-17.793    V176.887z M15.208,202.507h55.725v21.93c-21.195-14.753-43.728-17.623-55.725-17.977V202.507z M360.196,361.952    c-0.001,28.032-9.719,55.46-27.369,77.232c-12.488,15.408-28.579,27.491-46.629,35.308    c-13.023-23.419-31.976-44.774-56.458-63.545c-3.332-2.555-8.105-1.925-10.659,1.407c-2.555,3.332-1.925,8.104,1.407,10.659    c22.052,16.91,39.232,35.955,51.2,56.706c-2.637,0.765-5.294,1.469-7.987,2.057l-202.959,0.36    c-6.468-8.263-12.319-17.012-17.507-26.125h96.389c2.376,0,4.615-1.111,6.053-3.002s1.908-4.347,1.272-6.635l-14.702-52.925    c-0.914-3.29-3.91-5.568-7.326-5.568H69.651c-4.199,0-7.602,3.404-7.602,7.602c0,4.199,3.404,7.602,7.602,7.602h49.495    l10.478,37.72H24.812l-7.859-37.72h25.33c4.199,0,7.602-3.404,7.602-7.602c0-4.199-3.404-7.602-7.602-7.602H18.571    c-2.228-12.432-3.362-25.1-3.362-37.747v-4.442c27.273,3.884,115.752,19.305,185.249,63.37c1.263,0.801,2.671,1.183,4.064,1.183    c2.517,0,4.98-1.249,6.428-3.533c2.248-3.546,1.196-8.243-2.35-10.491c-74.752-47.397-167.543-62.483-193.39-65.911V221.687    c11.724,0.427,35.762,3.754,55.725,22.234v19.825c0,4.199,3.404,7.602,7.602,7.602c4.199,0,7.602-3.404,7.602-7.602v-65.931    c11.6,0.424,35.763,3.684,55.723,21.954v29.13c0,4.199,3.404,7.602,7.602,7.602c4.199,0,7.602-3.404,7.602-7.602v-71.86    c11.557,0.381,35.662,3.571,55.736,21.973v61.429c0,4.199,3.404,7.602,7.602,7.602s7.602-3.404,7.602-7.602v-61.331    c11.434,0.376,35.667,3.506,55.724,21.708v115.614c0,4.199,3.403,7.602,7.602,7.602s7.602-3.404,7.602-7.602v-42.97    c13.171,2.695,40.443,12.042,61.261,44.247V361.952z"/>
	</g>
</g>
<g>
	<g>
		<path d="M506.93,150.508c-0.037-0.015-0.071-0.036-0.109-0.05l-71.284-23.88V46.047c0-4.199-3.403-7.602-7.602-7.602h-63.326    V22.257c0-4.199-3.403-7.602-7.602-7.602h-70.94c-4.2,0-7.602,3.404-7.602,7.602v14.356h-63.326c-4.199,0-7.602,3.404-7.602,7.602    v18.016l-63.329,0.002c-4.199,0-7.602,3.404-7.602,7.602v59.62c0,4.199,3.404,7.602,7.602,7.602s7.602-3.404,7.602-7.602V96.619    c11.723,0.427,35.763,3.753,55.727,22.235v7.224c0,4.199,3.404,7.602,7.602,7.602s7.602-3.404,7.602-7.602V72.72    c11.554,0.382,35.646,3.581,55.724,21.984v29.127c0,4.199,3.403,7.602,7.602,7.602s7.602-3.404,7.602-7.602v-71.86    c11.558,0.381,35.663,3.572,55.735,21.973v61.428c0,4.199,3.403,7.602,7.602,7.602s7.602-3.404,7.602-7.602V74.044    c11.433,0.375,35.662,3.503,55.724,21.692v115.628c0,4.199,3.403,7.602,7.602,7.602s7.602-3.404,7.602-7.602v-43.013    c13.18,2.632,40.323,11.883,61.26,44.287v24.25c0,22.069-5.951,43.737-17.211,62.662c-2.147,3.609-0.962,8.273,2.646,10.42    c1.218,0.725,2.557,1.07,3.88,1.07c2.593,0,5.119-1.327,6.54-3.717c12.658-21.276,19.349-45.632,19.349-70.436v-79.217    C512.001,154.36,509.882,151.552,506.93,150.508z M207.535,99.368c-21.197-14.754-43.731-17.624-55.727-17.978v-3.953h55.727    V99.368z M278.463,75.286c-21.287-14.701-43.861-17.477-55.724-17.793v-5.674h55.724V75.286z M349.403,45.968    c0,0.026-0.004,0.052-0.004,0.078s0.004,0.052,0.004,0.078v8.411c-21.286-14.7-43.869-17.475-55.735-17.791V29.86h55.735V45.968z     M420.332,76.384c-21.369-14.637-43.988-17.314-55.724-17.592v-5.144h55.724V76.384z M496.797,187.659    c-22.964-25.443-48.817-32.683-61.26-34.738v-10.308l61.26,20.521V187.659z"/>
	</g>
</g>
<g>
	<g>
		<path d="M478.017,315.841c-3.189-2.733-7.989-2.36-10.719,0.828c-12.139,14.172-27.413,25.4-44.463,32.768    c-8.045-14.464-18.391-28.201-30.824-40.914c-2.936-3-7.748-3.056-10.751-0.12c-3.001,2.936-3.055,7.749-0.12,10.751    c10.861,11.106,19.971,23.021,27.176,35.513c-2.652,0.767-5.332,1.449-8.025,2.037l-11.138,0.057    c-4.2,0.021-7.585,3.442-7.564,7.641c0.021,4.185,3.421,7.564,7.601,7.564c0.013,0,0.026,0,0.039,0l11.928-0.061    c0.517-0.003,1.033-0.058,1.538-0.165c6.538-1.386,13.018-3.255,19.258-5.554c0.123-0.046,0.244-0.094,0.364-0.145    c21.809-8.112,41.35-21.758,56.531-39.481C481.577,323.371,481.205,318.572,478.017,315.841z"/>
	</g>
</g>
<g>
</g>
<g>
</g>
<g>
</g>
<g>
</g>
<g>
</g>
<g>
</g>
<g>
</g>
<g>
</g>
<g>
</g>
<g>
</g>
<g>
</g>
<g>
</g>
<g>
</g>
<g>
</g>
<g>
</g>
</svg>
