<?xml version="1.0" encoding="iso-8859-1"?>
<!-- Generator: Adobe Illustrator 19.0.0, SVG Export Plug-In . SVG Version: 6.00 Build 0)  -->
<svg xmlns="http://www.w3.org/2000/svg" xmlns:xlink="http://www.w3.org/1999/xlink" version="1.1" id="Layer_1" x="0px" y="0px" viewBox="0 0 512 512" style="enable-background:new 0 0 512 512;" xml:space="preserve">
<g>
	<g>
		<path d="M272.922,337.84l-94.003-94.002v-135.6c0-4.205-3.409-7.614-7.614-7.614H7.614c-4.205,0-7.614,3.409-7.614,7.614v172.656    c0,23.895,9.305,46.36,26.202,63.257l120.205,120.205c16.897,16.897,39.362,26.202,63.258,26.202    c23.896,0,46.361-9.305,63.258-26.202s26.202-39.362,26.202-63.258S289.819,354.737,272.922,337.84z M15.228,115.852h148.464    v19.961H15.228V115.852z M262.154,453.588c-28.943,28.942-76.037,28.943-104.98,0L36.97,333.384    c-14.021-14.021-21.742-32.663-21.742-52.49v-59.76c45.505,0.987,82.227,38.284,82.227,84.021c0,6.913-0.836,13.766-2.486,20.376    c-1.589,6.396-3.962,12.634-7.053,18.539c-1.543,2.949-0.992,6.559,1.362,8.913l28.737,28.739c1.487,1.487,3.435,2.23,5.385,2.23    s3.897-0.743,5.384-2.23c2.974-2.973,2.974-7.794,0-10.767l-24.9-24.902c2.466-5.444,4.431-11.09,5.861-16.842    c1.948-7.807,2.937-15.901,2.937-24.057c0-54.136-43.549-98.286-97.454-99.273v-54.841h148.464v95.952    c0,2.019,0.802,3.956,2.23,5.384l96.233,96.233c7.037,7.037,12.486,15.241,16.169,24.173l-58.987,46.398    c-13.509,10.627-32.862,9.474-45.015-2.68l-26.504-26.507c-2.974-2.974-7.795-2.974-10.768,0c-2.973,2.973-2.973,7.794,0,10.767    l26.504,26.507c9.541,9.542,22.142,14.401,34.803,14.401c10.696,0,21.435-3.471,30.395-10.519l54.083-42.542    c0.689,4.089,1.062,8.261,1.062,12.491C283.896,420.927,276.175,439.568,262.154,453.588z"/>
	</g>
</g>
<g>
	<g>
		<path d="M485.798,258.66l-94.003-94.003V29.056c0-4.205-3.409-7.614-7.614-7.614H220.49c-4.205,0-7.614,3.409-7.614,7.614v172.656    c0,23.896,9.305,46.361,26.202,63.258l120.205,120.205c16.897,16.897,39.362,26.202,63.258,26.202    c23.894,0,46.362-9.306,63.258-26.202C502.695,368.278,512,345.813,512,321.917C512,298.021,502.695,275.556,485.798,258.66z     M475.03,374.407c-14.021,14.021-32.662,21.742-52.49,21.742c-19.828,0-38.469-7.722-52.49-21.742L249.846,254.203    c-14.021-14.021-21.742-32.662-21.742-52.49v-59.76c45.505,0.987,82.227,38.284,82.227,84.021c0,6.914-0.836,13.767-2.485,20.376    c-1.591,6.398-3.963,12.635-7.053,18.539c-1.543,2.949-0.992,6.559,1.362,8.913l74.276,74.283    c9.542,9.542,22.142,14.403,34.803,14.402c10.696-0.001,21.435-3.471,30.395-10.519l17.494-13.761    c3.305-2.6,3.877-7.387,1.277-10.691c-2.601-3.305-7.388-3.877-10.692-1.277L432.213,340c-13.51,10.627-32.863,9.474-45.015-2.68    l-70.438-70.445c2.466-5.443,4.431-11.089,5.862-16.842c1.948-7.807,2.937-15.901,2.937-24.057    c0-54.136-43.549-98.286-97.454-99.273V71.86h73.764c4.205,0,7.614-3.409,7.614-7.614c0-4.205-3.409-7.614-7.614-7.614h-73.764    V36.67h148.464v19.961h-51.859c-4.205,0-7.614,3.409-7.614,7.614c0,4.205,3.409,7.614,7.614,7.614h51.859v95.952    c0,2.019,0.802,3.956,2.23,5.384l96.232,96.233c7.143,7.143,12.515,15.393,16.132,24.201l-20.887,16.429    c-3.305,2.6-3.877,7.387-1.277,10.692c1.503,1.91,3.735,2.906,5.99,2.906c1.648,0,3.307-0.532,4.702-1.629l15.981-12.57    C499.543,332.369,492.677,356.76,475.03,374.407z"/>
	</g>
</g>
<g>
</g>
<g>
</g>
<g>
</g>
<g>
</g>
<g>
</g>
<g>
</g>
<g>
</g>
<g>
</g>
<g>
</g>
<g>
</g>
<g>
</g>
<g>
</g>
<g>
</g>
<g>
</g>
<g>
</g>
</svg>
