<?xml version="1.0" encoding="iso-8859-1"?>
<!-- Generator: Adobe Illustrator 19.0.0, SVG Export Plug-In . SVG Version: 6.00 Build 0)  -->
<svg xmlns="http://www.w3.org/2000/svg" xmlns:xlink="http://www.w3.org/1999/xlink" version="1.1" id="Layer_1" x="0px" y="0px" viewBox="0 0 512 512" style="enable-background:new 0 0 512 512;" xml:space="preserve">
<g>
	<g>
		<path d="M343.897,120.238c-7.037,0-12.763-5.725-12.763-12.762V28.409C331.134,12.744,318.39,0,302.725,0h-93.45    c-15.665,0-28.409,12.744-28.409,28.409v79.065c0,7.037-5.725,12.763-12.763,12.763c-31.561,0-57.239,25.677-57.239,57.239v55.293    c0,4.199,3.405,7.604,7.604,7.604s7.604-3.405,7.604-7.604v-55.292c0-23.176,18.855-42.031,42.031-42.031H276.91    c4.199,0,7.604-3.405,7.604-7.604c0-4.199-3.405-7.604-7.604-7.604h-83.932c1.973-3.829,3.094-8.167,3.094-12.762V94.268h119.854    v13.207c0,15.423,12.548,27.97,27.97,27.97c23.176,0,42.032,18.855,42.032,42.031V454.76c0,23.176-18.855,42.031-42.032,42.031    H168.102c-23.176,0-42.031-18.855-42.031-42.031V258.116c0-4.199-3.405-7.604-7.604-7.604c-4.199,0-7.604,3.405-7.604,7.604    v196.646c0,31.562,25.677,57.239,57.239,57.239h175.794c31.562,0,57.24-25.677,57.24-57.239V177.476    C401.136,145.915,375.459,120.238,343.897,120.238z M196.073,28.409c0-7.28,5.922-13.201,13.203-13.201h93.45    c7.279,0,13.201,5.922,13.201,13.201v12.768H196.073V28.409z M315.928,79.06H196.073V56.385h35.671    c-0.045,0.333-0.075,0.669-0.075,1.014c0,4.199,3.405,7.604,7.604,7.604h33.456c4.199,0,7.604-3.405,7.604-7.604    c0-0.345-0.03-0.681-0.075-1.014h35.671V79.06z"/>
	</g>
</g>
<g>
	<g>
		<path d="M256,253.047c-30.745,0-55.758,25.013-55.758,55.758s25.013,55.758,55.758,55.758c8.375,0,16.43-1.813,23.941-5.39    c3.792-1.805,5.403-6.343,3.597-10.134c-1.805-3.792-6.341-5.403-10.135-3.597c-5.454,2.596-11.31,3.912-17.405,3.912    c-22.36,0-40.55-18.191-40.55-40.55c0-22.36,18.191-40.55,40.55-40.55s40.55,18.191,40.55,40.55    c0,8.224-2.446,16.141-7.076,22.894c-2.375,3.464-1.49,8.197,1.973,10.572c3.465,2.374,8.197,1.49,10.572-1.973    c6.371-9.295,9.739-20.185,9.739-31.493C311.758,278.06,286.745,253.047,256,253.047z"/>
	</g>
</g>
<g>
	<g>
		<path d="M337.894,308.806l16.887-25.87c1.259-1.927,1.578-4.319,0.867-6.507c-0.711-2.188-2.373-3.937-4.523-4.756l-28.86-11.001    l-1.558-30.846c-0.116-2.295-1.264-4.415-3.123-5.767c-1.858-1.351-4.227-1.789-6.449-1.191l-29.819,8.034l-19.399-24.022    c-1.444-1.787-3.617-2.827-5.916-2.827c-2.297,0-4.472,1.039-5.916,2.827l-19.399,24.022l-29.821-8.034    c-2.219-0.598-4.59-0.159-6.449,1.192c-1.858,1.351-3.007,3.471-3.124,5.767l-1.557,30.846l-28.86,11.001    c-2.149,0.819-3.813,2.568-4.523,4.756c-0.711,2.188-0.393,4.58,0.865,6.506l16.887,25.869l-16.887,25.87    c-1.257,1.926-1.576,4.318-0.865,6.506c0.711,2.188,2.373,3.937,4.523,4.756l28.86,11.001l1.558,30.846    c0.116,2.295,1.264,4.415,3.123,5.767c1.859,1.352,4.23,1.79,6.449,1.191l29.819-8.034l19.399,24.022    c1.444,1.787,3.618,2.827,5.916,2.827c2.298,0,4.472-1.039,5.916-2.827l19.399-24.022l29.82,8.034    c2.219,0.598,4.591,0.159,6.449-1.191c1.858-1.352,3.007-3.471,3.123-5.767l1.557-30.846l28.86-11.001    c2.149-0.819,3.813-2.568,4.523-4.756c0.711-2.188,0.393-4.58-0.865-6.506L337.894,308.806z M322.448,312.962l14.442,22.124    l-24.678,9.408c-2.818,1.074-4.734,3.711-4.886,6.722l-1.332,26.391l-25.505-6.871c-2.91-0.784-6.002,0.222-7.894,2.565    L256,393.851l-16.596-20.55c-1.465-1.815-3.653-2.827-5.916-2.827c-0.658,0-1.323,0.085-1.978,0.263l-25.504,6.871l-1.333-26.391    c-0.152-3.011-2.068-5.648-4.886-6.722l-24.679-9.408l14.442-22.125c1.649-2.526,1.649-5.787,0-8.313l-14.442-22.125l24.678-9.408    c2.818-1.074,4.734-3.711,4.886-6.722l1.332-26.391l25.505,6.871c2.909,0.784,6.002-0.223,7.894-2.565L256,223.759l16.595,20.55    c1.892,2.343,4.987,3.349,7.894,2.565l25.504-6.871l1.333,26.391c0.152,3.011,2.068,5.648,4.886,6.722l24.679,9.408    l-14.442,22.126C320.799,307.175,320.799,310.436,322.448,312.962z"/>
	</g>
</g>
<g>
</g>
<g>
</g>
<g>
</g>
<g>
</g>
<g>
</g>
<g>
</g>
<g>
</g>
<g>
</g>
<g>
</g>
<g>
</g>
<g>
</g>
<g>
</g>
<g>
</g>
<g>
</g>
<g>
</g>
</svg>
