<?xml version="1.0" encoding="iso-8859-1"?>
<!-- Generator: Adobe Illustrator 19.0.0, SVG Export Plug-In . SVG Version: 6.00 Build 0)  -->
<svg xmlns="http://www.w3.org/2000/svg" xmlns:xlink="http://www.w3.org/1999/xlink" version="1.1" id="Layer_1" x="0px" y="0px" viewBox="0 0 512.001 512.001" style="enable-background:new 0 0 512.001 512.001;" xml:space="preserve">
<g>
	<g>
		<path d="M511.4,303.56c-2.508-11.024-8.758-20.988-17.605-28.062c-8.847-7.059-19.95-10.947-31.264-10.947h-23.389    c-24.374,0-47.871-7.321-67.946-21.171l-16.272-11.234l10.693-12.138c1.442-1.637,2.112-3.815,1.838-5.98    c-0.274-2.164-1.463-4.108-3.269-5.334l-27.268-18.542c-3.063-2.084-7.185-1.655-9.754,1.016l-12.609,13.104l-18.242-12.6    l9.396-11.022c1.401-1.644,2.037-3.807,1.749-5.947c-0.288-2.141-1.473-4.058-3.259-5.273l-27.268-18.542    c-3.122-2.122-7.329-1.634-9.881,1.15l-10.908,11.899l-22.005-15.196c-3.02-2.085-7.101-1.716-9.696,0.88l-59.493,59.482    c-10.271,10.271-24.883,14.645-39.099,11.698c-8.091-1.674-15.484-5.615-21.375-11.391c-5.912-5.806-9.999-13.125-11.821-21.163    c-1.192-5.268-4.178-10.03-8.41-13.409c-4.224-3.373-9.527-5.231-14.934-5.231c-10.781,0-21.024,3.443-29.622,9.958    c-8.587,6.505-14.67,15.436-17.593,25.832L2.688,274.469c-6.058,21.57-1.768,44.183,11.764,62.04    C27.986,354.365,48.596,364.606,71,364.606h52.743c4.2,0,7.604-3.404,7.604-7.604s-3.403-7.604-7.604-7.604H71.001    c-17.602,0-33.795-8.046-44.427-22.075c-4.572-6.032-7.791-12.758-9.609-19.809c13.181,15.451,32.736,24.972,54.03,24.972h338.584    c24.851,0,61.761-18.619,84.889-31.874c0.896,2.03,1.608,4.145,2.103,6.321c0.833,3.664-0.775,7.409-3.998,9.318    c-50.57,29.917-74.872,33.147-82.974,33.147H149.595c-4.2,0-7.604,3.404-7.604,7.604c0,4.199,3.403,7.604,7.604,7.604h260.004    c27.065,0,68.455-22.095,90.718-35.267C509.251,324.049,513.704,313.69,511.4,303.56z M333.674,206.336l14.834,10.088    l-28.368,32.201c-2.217,2.516-5.522,3.715-8.833,3.205c-3.683-0.567-6.593-3.012-7.786-6.541    c-1.193-3.529-0.363-7.239,2.219-9.923L333.674,206.336z M70.995,317.278c-24.64,0-46.324-16.218-53.393-39.666l11.388-40.537    c20.23,5.517,38.843,15.988,54.17,30.574c14.568,13.863,25.578,30.873,32.233,49.629H70.995z M409.579,317.28H131.423v-0.002    c-7.196-23.015-20.17-43.886-37.78-60.645c-17.128-16.298-37.926-28.01-60.541-34.196l3.632-12.926    c2.018-7.176,6.214-13.339,12.135-17.825c5.934-4.495,13.001-6.872,20.439-6.872c2,0,3.882,0.659,5.444,1.907    c1.567,1.251,2.628,2.939,3.067,4.884c2.47,10.892,8.001,20.8,16.001,28.658c7.983,7.828,17.992,13.163,28.944,15.429    c19.243,3.989,39.032-1.931,52.937-15.836l55.01-55l15.058,10.398l-14.666,15.999c-2.838,3.095-2.629,7.906,0.466,10.742    c3.098,2.839,7.908,2.629,10.744-0.467l31.504-34.368l14.819,10.076l-44.805,52.561c-2.292,2.688-5.743,3.972-9.235,3.435    c-3.752-0.577-6.743-3.06-8.003-6.642c-1.259-3.581-0.481-7.39,2.085-10.188c2.838-3.095,2.629-7.906-0.466-10.742    c-3.097-2.838-7.907-2.628-10.743,0.467c-6.326,6.901-8.328,16.675-5.222,25.508s10.784,15.204,20.037,16.628    c1.312,0.202,2.621,0.301,3.917,0.301c7.35,0,14.326-3.18,19.203-8.9l30.994-36.358l17.474,12.071l-9.089,9.446    c-6.497,6.752-8.669,16.46-5.669,25.338c3.001,8.877,10.62,15.277,19.88,16.702c1.287,0.198,2.571,0.295,3.846,0.295    c7.116,0,13.911-3.028,18.711-8.478l13.251-15.04l17.756,12.259c22.628,15.611,49.11,23.862,76.583,23.862h23.389    c7.881,0,15.616,2.708,21.774,7.622c0.368,0.294,0.729,0.597,1.084,0.905C439.681,314.337,417.289,317.28,409.579,317.28z"/>
	</g>
</g>
<g>
</g>
<g>
</g>
<g>
</g>
<g>
</g>
<g>
</g>
<g>
</g>
<g>
</g>
<g>
</g>
<g>
</g>
<g>
</g>
<g>
</g>
<g>
</g>
<g>
</g>
<g>
</g>
<g>
</g>
</svg>
