<?xml version="1.0" encoding="iso-8859-1"?>
<!-- Generator: Adobe Illustrator 19.0.0, SVG Export Plug-In . SVG Version: 6.00 Build 0)  -->
<svg xmlns="http://www.w3.org/2000/svg" xmlns:xlink="http://www.w3.org/1999/xlink" version="1.1" id="Layer_1" x="0px" y="0px" viewBox="0 0 512.001 512.001" style="enable-background:new 0 0 512.001 512.001;" xml:space="preserve">
<g>
	<g>
		<path d="M503.476,235.435L355.509,87.469c-3.073-3.07-8.052-3.073-11.123,0c-3.072,3.072-3.072,8.051,0,11.122l147.967,147.966    c2.522,2.522,3.911,5.876,3.911,9.442s-1.388,6.92-3.912,9.442L265.436,492.359c-2.521,2.522-5.876,3.91-9.442,3.91    c-3.567,0-6.92-1.388-9.442-3.91L19.635,265.443c-5.207-5.207-5.207-13.679,0-18.885L246.55,19.642    c2.523-2.522,5.877-3.912,9.443-3.912c3.567,0,6.921,1.388,9.442,3.911l57.714,57.714c3.073,3.072,8.052,3.072,11.123,0    c3.072-3.072,3.072-8.052,0-11.123L276.559,8.518C271.066,3.025,263.762,0,255.994,0c-7.768,0-15.071,3.025-20.565,8.518    L8.511,235.435c-11.339,11.339-11.339,29.791,0,41.131l226.918,226.917c5.493,5.493,12.797,8.518,20.564,8.518    c7.769,0,15.073-3.025,20.566-8.518l226.916-226.917c5.494-5.493,8.519-12.797,8.519-20.565S508.969,240.928,503.476,235.435z"/>
	</g>
</g>
<g>
	<g>
		<path d="M481.405,250.439L261.557,30.591c-1.475-1.474-3.475-2.304-5.562-2.304c-2.087,0-4.086,0.828-5.562,2.304L30.585,250.438    c-3.06,3.06-3.073,8.018-0.027,11.095l143.105,144.563c3.057,3.088,8.037,3.111,11.122,0.057    c3.086-3.056,3.112-8.036,0.057-11.122l-137.6-139.002L255.995,47.275L464.72,256l-208.8,208.799l-49.946-48.634    c-3.112-3.032-8.092-2.964-11.121,0.148c-3.031,3.112-2.965,8.092,0.148,11.121l55.507,54.05c1.528,1.488,3.508,2.231,5.487,2.231    c2.013,0,4.027-0.769,5.562-2.304l219.849-219.849C484.477,258.49,484.477,253.511,481.405,250.439z"/>
	</g>
</g>
<g>
	<g>
		<path d="M313.579,155.705l-36.438-50.195c-1.48-2.039-3.847-3.245-6.364-3.245c-2.519,0-4.885,1.206-6.364,3.245l-36.437,50.195    c-1.737,2.393-1.986,5.558-0.642,8.192c1.342,2.634,4.05,4.293,7.007,4.293h15.011v15.18c0,4.488-1.504,6.467-10.721,14.113    c-10.496,8.706-26.356,21.862-26.356,47.397c0,25.536,15.86,38.692,26.356,47.397c9.217,7.647,10.721,9.626,10.721,14.114    c0,4.488-1.505,6.467-10.722,14.114c-10.495,8.705-26.356,21.861-26.356,47.398v10.696c0,4.344,3.52,7.865,7.865,7.865h27.513    c4.345,0,7.865-3.521,7.865-7.865v-10.696c0-4.489,1.504-6.468,10.723-14.115c10.495-8.706,26.355-21.863,26.355-47.397    c0-4.344-3.52-7.865-7.865-7.865s-7.865,3.521-7.865,7.865c0,18.145-10.981,27.254-20.668,35.29    c-8.805,7.304-16.409,13.611-16.409,26.222v2.831h-11.783v-2.831c0-18.147,10.981-27.255,20.669-35.291    c8.804-7.304,16.407-13.612,16.407-26.221c0-12.61-7.604-18.917-16.407-26.221c-9.688-8.036-20.668-17.144-20.668-35.29    c0-18.145,10.981-27.253,20.668-35.29c8.805-7.303,16.407-13.611,16.407-26.22v-23.045c0-4.344-3.52-7.865-7.865-7.865h-7.449    l21.009-28.941l21.009,28.941h-7.057c-4.345,0-7.865,3.521-7.865,7.865v23.045c0,18.145-10.982,27.254-20.669,35.289    c-8.805,7.303-16.408,13.611-16.408,26.22c0,12.61,7.604,18.918,16.409,26.221c4.702,3.901,10.033,8.322,14.071,14.048    c2.504,3.55,7.409,4.399,10.96,1.895c3.55-2.503,4.398-7.41,1.895-10.96c-5.241-7.433-11.696-12.787-16.884-17.089    c-9.218-7.647-10.722-9.625-10.722-14.114c0-4.488,1.504-6.467,10.721-14.113c10.496-8.705,26.357-21.861,26.357-47.397v-15.18    h14.62c2.956,0,5.664-1.659,7.007-4.293C315.564,161.263,315.316,158.098,313.579,155.705z"/>
	</g>
</g>
<g>
</g>
<g>
</g>
<g>
</g>
<g>
</g>
<g>
</g>
<g>
</g>
<g>
</g>
<g>
</g>
<g>
</g>
<g>
</g>
<g>
</g>
<g>
</g>
<g>
</g>
<g>
</g>
<g>
</g>
</svg>
