<?xml version="1.0" encoding="iso-8859-1"?>
<!-- Generator: Adobe Illustrator 19.0.0, SVG Export Plug-In . SVG Version: 6.00 Build 0)  -->
<svg xmlns="http://www.w3.org/2000/svg" xmlns:xlink="http://www.w3.org/1999/xlink" version="1.1" id="Layer_1" x="0px" y="0px" viewBox="0 0 512.001 512.001" style="enable-background:new 0 0 512.001 512.001;" xml:space="preserve">
<g>
	<g>
		<path d="M356.011,121.423c-1.938-3.747-6.544-5.213-10.295-3.276c-3.747,1.938-5.213,6.547-3.275,10.295    c19.538,37.771,12.443,83.368-17.654,113.465c-8.514,8.514-18.233,15.101-28.606,19.792v-16.66    c24.957-14.358,40.265-40.646,40.265-69.703c0-30.78-17.938-59.272-45.701-72.588c-2.365-1.135-5.151-0.976-7.373,0.423    s-3.57,3.84-3.57,6.465l-0.009,57.685l-47.58,0.007v-57.692c0-2.625-1.348-5.066-3.569-6.465c-2.221-1.4-5.005-1.558-7.373-0.425    c-27.77,13.313-45.712,41.805-45.712,72.588c0,29.054,15.313,55.343,40.275,69.703v16.663    c-10.376-4.692-20.097-11.279-28.613-19.795c-18.373-18.373-28.492-42.801-28.492-68.784c0-25.983,10.119-50.411,28.492-68.784    c37.926-37.926,99.639-37.926,137.566,0c2.984,2.983,7.821,2.983,10.804,0c2.983-2.983,2.983-7.821,0-10.803    c-43.885-43.884-115.291-43.884-159.176,0c-21.258,21.258-32.966,49.523-32.966,79.587s11.708,58.329,32.966,79.587    c21.943,21.947,50.766,32.917,79.588,32.917c28.822,0,57.645-10.971,79.588-32.914c17.23-17.231,28.211-39.045,31.756-63.086    C370.822,166.062,366.902,142.477,356.011,121.423z M280.901,240.476v26.634c-16.299,4.288-33.49,4.288-49.789,0.002v-26.636    c0-2.893-1.634-5.537-4.22-6.832c-22.239-11.129-36.054-33.471-36.054-58.307c0-20.619,9.937-39.971,26.096-52.152v51.785    c0,2.026,0.805,3.969,2.238,5.403c1.432,1.433,3.376,2.238,5.403,2.237l62.857-0.01c4.219,0,7.637-3.419,7.638-7.638l0.008-51.775    c16.153,12.183,26.088,31.534,26.088,52.151c0,24.838-13.812,47.18-36.045,58.307    C282.534,234.939,280.901,237.583,280.901,240.476z"/>
	</g>
</g>
<g>
	<g>
		<path d="M378.479,50.65c-67.534-67.533-177.417-67.533-244.951,0c-67.532,67.533-67.532,177.416,0,244.949l22.855,22.855    c-30.549,7.7-56.656,18.841-76.087,32.541c-24.083,16.978-36.811,37.162-36.811,58.372c0,16.99,8.385,33.69,24.251,48.296    c1.468,1.352,3.324,2.019,5.172,2.019c2.061,0,4.116-0.829,5.623-2.465c2.858-3.104,2.658-7.937-0.446-10.795    c-12.82-11.801-19.321-24.268-19.321-37.054c0-20.247,16.496-36.128,30.336-45.884c19.757-13.929,47.357-25.064,79.985-32.326    l81.515,81.515c1.492,1.491,3.448,2.238,5.403,2.238c1.955,0,3.91-0.746,5.403-2.238l117.073-117.073    C446.011,228.066,446.011,118.183,378.479,50.65z M367.674,284.795L256.003,396.467L144.332,284.795    c-61.575-61.575-61.575-161.766,0-223.341c30.788-30.788,71.229-46.181,111.671-46.181s80.883,15.394,111.671,46.181    C429.249,123.029,429.249,223.22,367.674,284.795z"/>
	</g>
</g>
<g>
	<g>
		<path d="M370.859,322.694c-4.033-1.23-8.305,1.037-9.538,5.072s1.038,8.306,5.072,9.539c26.804,8.195,49.032,19.312,64.279,32.151    c10.294,8.668,22.565,22.629,22.565,39.911c0,21.907-20.259,43.865-55.58,60.242c-37.708,17.484-88.014,27.113-141.65,27.113    c-61.81,0-119.06-12.811-157.067-35.147c-3.634-2.135-8.319-0.922-10.457,2.717c-2.138,3.637-0.922,8.319,2.716,10.457    c40.286,23.675,100.356,37.253,164.809,37.253c55.81,0,108.398-10.132,148.077-28.531c41.549-19.265,64.432-45.582,64.432-74.103    C468.516,373.789,432.008,341.388,370.859,322.694z"/>
	</g>
</g>
<g>
</g>
<g>
</g>
<g>
</g>
<g>
</g>
<g>
</g>
<g>
</g>
<g>
</g>
<g>
</g>
<g>
</g>
<g>
</g>
<g>
</g>
<g>
</g>
<g>
</g>
<g>
</g>
<g>
</g>
</svg>
