<?xml version="1.0" encoding="iso-8859-1"?>
<!-- Generator: Adobe Illustrator 19.0.0, SVG Export Plug-In . SVG Version: 6.00 Build 0)  -->
<svg xmlns="http://www.w3.org/2000/svg" xmlns:xlink="http://www.w3.org/1999/xlink" version="1.1" id="Layer_1" x="0px" y="0px" viewBox="0 0 512 512" style="enable-background:new 0 0 512 512;" xml:space="preserve">
<g>
	<g>
		<path d="M511.562,159.708l-7.566-21.325c-14.122-39.797-51.982-66.536-94.211-66.536h-77.654c-4.2,0-7.604,3.405-7.604,7.604    c0,4.199,3.404,7.604,7.604,7.604h77.654c35.804,0,67.905,22.671,79.878,56.413l3.966,11.177H338.937    c-29.15,0-58.525,6.506-84.949,18.812l-10.317,4.806c-79.037,36.81-172.784,13.651-225.698-54.869L53.32,93.629    c5.034-4.239,11.431-6.574,18.012-6.574h235.452c4.2,0,7.604-3.405,7.604-7.604s-3.404-7.604-7.604-7.604H71.332    c-10.16,0-20.036,3.604-27.808,10.149L2.706,116.368c-3.032,2.554-3.594,7.01-1.29,10.236    c38.792,54.308,100.502,84.263,163.86,84.26c4.8,0,9.609-0.189,14.419-0.534l3.581,10.844    c-11.655,6.659-19.533,19.203-19.533,33.56c0,21.301,17.33,38.632,38.632,38.632c1.579,0,3.132-0.106,4.662-0.291l21.085,63.791    c1.056,3.196,4.028,5.219,7.219,5.219c0.791,0,1.596-0.125,2.387-0.386c3.987-1.318,6.151-5.619,4.834-9.606l-21.087-63.799    c11.655-6.659,19.534-19.203,19.534-33.56c0-3.705-0.535-7.285-1.513-10.679h21.681l63.071,190.878    c1.055,3.196,4.028,5.22,7.219,5.22c0.79,0,1.595-0.125,2.387-0.386c3.987-1.317,6.151-5.618,4.834-9.605l-61.562-186.308    c29.76-2.371,53.255-27.33,53.255-57.689V170.07c2.852-0.134,5.706-0.216,8.557-0.216h165.457c2.471,0,4.786-1.2,6.211-3.217    C512.032,164.62,512.388,162.036,511.562,159.708z M202.375,278.159c-12.916,0-23.424-10.508-23.424-23.424    c0-12.917,10.508-23.424,23.424-23.424c12.917,0,23.424,10.508,23.424,23.424C225.799,267.652,215.292,278.159,202.375,278.159z     M272.489,228.849h-41.465c-7.075-7.822-17.298-12.745-28.65-12.745c-1.579,0-3.132,0.106-4.662,0.291l-2.57-7.783    c18.645-2.808,37.145-8.269,54.948-16.561l10.318-4.806c17.239-8.03,35.838-13.373,54.763-15.831v14.753h0.001    C315.172,209.702,296.024,228.849,272.489,228.849z"/>
	</g>
</g>
<g>
	<g>
		<path d="M268.362,430.157l-15.99-48.377c-1.319-3.989-5.622-6.152-9.606-4.834c-3.987,1.318-6.151,5.619-4.834,9.606    l15.991,48.378c1.056,3.196,4.028,5.219,7.219,5.219c0.79,0,1.595-0.125,2.387-0.386    C267.516,438.445,269.679,434.144,268.362,430.157z"/>
	</g>
</g>
<g>
</g>
<g>
</g>
<g>
</g>
<g>
</g>
<g>
</g>
<g>
</g>
<g>
</g>
<g>
</g>
<g>
</g>
<g>
</g>
<g>
</g>
<g>
</g>
<g>
</g>
<g>
</g>
<g>
</g>
</svg>
