<?xml version="1.0" encoding="iso-8859-1"?>
<!-- Generator: Adobe Illustrator 19.0.0, SVG Export Plug-In . SVG Version: 6.00 Build 0)  -->
<svg xmlns="http://www.w3.org/2000/svg" xmlns:xlink="http://www.w3.org/1999/xlink" version="1.1" id="Layer_1" x="0px" y="0px" viewBox="0 0 512 512" style="enable-background:new 0 0 512 512;" xml:space="preserve">
<g>
	<g>
		<path d="M504.396,283.374h-49.569c-4.199,0-7.604,3.405-7.604,7.604c0,4.199,3.405,7.604,7.604,7.604h49.569    c4.199,0,7.604-3.405,7.604-7.604C512,286.778,508.595,283.374,504.396,283.374z"/>
	</g>
</g>
<g>
	<g>
		<path d="M504.396,213.417h-67.311v-23.568c0-4.199-3.405-7.604-7.604-7.604h-25.12v-65.438c0-22.739-18.5-41.238-41.238-41.238    h-55.299c-4.199,0-7.604,3.405-7.604,7.604c0,4.199,3.405,7.604,7.604,7.604h55.299c14.353,0,26.03,11.677,26.03,26.03v278.386    c0,14.353-11.678,26.03-26.03,26.03H148.878c-14.353,0-26.03-11.678-26.03-26.03V116.807c0-14.353,11.678-26.03,26.03-26.03    h133.598c4.199,0,7.604-3.405,7.604-7.604c0-4.199-3.405-7.604-7.604-7.604H148.878c-22.739,0-41.238,18.499-41.238,41.238v65.438    H82.518c-4.199,0-7.604,3.405-7.604,7.604v23.568H7.604c-4.199,0-7.604,3.405-7.604,7.604s3.405,7.604,7.604,7.604h67.31v54.748    H7.604c-4.199,0-7.604,3.405-7.604,7.604c0,4.199,3.405,7.604,7.604,7.604h67.31v25.09c0,4.199,3.405,7.604,7.604,7.604h25.121    v63.917c0,22.739,18.5,41.238,41.238,41.238h214.244c22.739,0,41.238-18.5,41.238-41.238v-63.917h25.12    c4.199,0,7.604-3.405,7.604-7.604v-95.046h67.312c4.199,0,7.604-3.405,7.604-7.604S508.595,213.417,504.396,213.417z     M107.64,316.068H90.122V197.453h17.518V316.068z M421.877,316.068H404.36V197.453h17.517V316.068z"/>
	</g>
</g>
<g>
	<g>
		<path d="M346.48,290.216c4.199,0,7.604-3.405,7.604-7.604V144.227c0-4.199-3.405-7.604-7.604-7.604H165.514    c-4.199,0-7.604,3.405-7.604,7.604v180.965c0,4.199,3.405,7.604,7.604,7.604h180.965c4.199,0,7.604-3.405,7.604-7.604v-17.234    c0-4.199-3.405-7.604-7.604-7.604c-4.199,0-7.604,3.405-7.604,7.604v9.63H173.118V151.831h165.757v130.781    C338.876,286.812,342.281,290.216,346.48,290.216z"/>
	</g>
</g>
<g>
	<g>
		<path d="M184.523,353.326c-14.675,0-26.613,11.938-26.613,26.613s11.938,26.613,26.613,26.613s26.613-11.938,26.613-26.613    S199.197,353.326,184.523,353.326z M184.524,391.344c-6.289,0-11.405-5.116-11.405-11.405s5.116-11.405,11.405-11.405    c6.289,0,11.405,5.116,11.405,11.405S190.813,391.344,184.524,391.344z"/>
	</g>
</g>
<g>
	<g>
		<path d="M255.997,353.326c-14.675,0-26.613,11.938-26.613,26.613s11.938,26.613,26.613,26.613    c14.675,0,26.613-11.938,26.613-26.613S270.672,353.326,255.997,353.326z M255.997,391.344c-6.289,0-11.405-5.116-11.405-11.405    s5.116-11.405,11.405-11.405c6.289,0,11.405,5.116,11.405,11.405S262.286,391.344,255.997,391.344z"/>
	</g>
</g>
<g>
	<g>
		<path d="M327.471,353.326c-14.675,0-26.613,11.938-26.613,26.613s11.938,26.613,26.613,26.613s26.613-11.938,26.613-26.613    S342.145,353.326,327.471,353.326z M327.471,391.344c-6.289,0-11.405-5.116-11.405-11.405c0-6.289,5.116-11.405,11.405-11.405    s11.405,5.116,11.405,11.405C338.876,386.228,333.759,391.344,327.471,391.344z"/>
	</g>
</g>
<g>
	<g>
		<path d="M305.421,189.342h-48.793c-4.199,0-7.604,3.405-7.604,7.604s3.405,7.604,7.604,7.604h48.793    c4.199,0,7.604-3.405,7.604-7.604S309.62,189.342,305.421,189.342z"/>
	</g>
</g>
<g>
	<g>
		<path d="M236.35,189.342h-29.776c-4.199,0-7.604,3.405-7.604,7.604s3.404,7.604,7.604,7.604h29.776    c4.199,0,7.604-3.405,7.604-7.604S240.55,189.342,236.35,189.342z"/>
	</g>
</g>
<g>
	<g>
		<path d="M305.421,225.079h-98.846c-4.199,0-7.604,3.405-7.604,7.604c0,4.199,3.405,7.604,7.604,7.604h98.846    c4.199,0,7.604-3.405,7.604-7.604C313.025,228.483,309.62,225.079,305.421,225.079z"/>
	</g>
</g>
<g>
	<g>
		<path d="M305.421,260.815h-19.899c-4.199,0-7.604,3.405-7.604,7.604c0,4.199,3.405,7.604,7.604,7.604h19.899    c4.199,0,7.604-3.405,7.604-7.604C313.025,264.22,309.62,260.815,305.421,260.815z"/>
	</g>
</g>
<g>
	<g>
		<path d="M265.244,260.815h-58.67c-4.199,0-7.604,3.405-7.604,7.604c0,4.199,3.405,7.604,7.604,7.604h58.67    c4.199,0,7.604-3.405,7.604-7.604C272.848,264.22,269.444,260.815,265.244,260.815z"/>
	</g>
</g>
<g>
</g>
<g>
</g>
<g>
</g>
<g>
</g>
<g>
</g>
<g>
</g>
<g>
</g>
<g>
</g>
<g>
</g>
<g>
</g>
<g>
</g>
<g>
</g>
<g>
</g>
<g>
</g>
<g>
</g>
</svg>
