<?xml version="1.0" encoding="iso-8859-1"?>
<!-- Generator: Adobe Illustrator 19.0.0, SVG Export Plug-In . SVG Version: 6.00 Build 0)  -->
<svg xmlns="http://www.w3.org/2000/svg" xmlns:xlink="http://www.w3.org/1999/xlink" version="1.1" id="Layer_1" x="0px" y="0px" viewBox="0 0 512.001 512.001" style="enable-background:new 0 0 512.001 512.001;" xml:space="preserve">
<g>
	<g>
		<path d="M361.689,122.26L344.386,6.481C343.83,2.756,340.631,0,336.866,0H175.139c-3.765,0-6.964,2.756-7.52,6.481    l-17.302,115.777c-15.157,6.237-25.859,21.158-25.859,38.539v190.41c0,17.381,10.702,32.302,25.861,38.539l17.302,115.775    c0.557,3.724,3.755,6.481,7.52,6.481h161.725c3.766,0,6.964-2.756,7.52-6.481l7.089-47.435c0.62-4.154-2.243-8.024-6.396-8.644    c-4.149-0.622-8.023,2.244-8.644,6.396l-6.12,40.954H181.692l-15.531-103.926h179.685l-5.343,35.752    c-0.62,4.154,2.243,8.024,6.396,8.644c0.38,0.057,0.759,0.084,1.133,0.084c3.703,0,6.948-2.708,7.511-6.482l6.146-41.123    c15.154-6.238,25.853-21.158,25.853-38.537V160.795C387.542,143.418,376.843,128.498,361.689,122.26z M181.692,15.208h148.622    l15.531,103.928H166.161L181.692,15.208z M345.883,377.657H166.117c-14.585,0-26.452-11.866-26.452-26.452v-190.41    c0-14.585,11.866-26.452,26.452-26.452h179.765c14.585,0,26.452,11.866,26.452,26.452v190.41h0.001    C372.335,365.791,360.468,377.657,345.883,377.657z"/>
	</g>
</g>
<g>
	<g>
		<path d="M317.338,203.711c-16.763-16.762-43.428-17.733-61.338-2.91c-17.908-14.822-44.573-13.852-61.337,2.911    c-8.619,8.618-13.366,20.077-13.366,32.266s4.747,23.647,13.366,32.266l55.959,55.96c1.425,1.427,3.36,2.227,5.376,2.227    c2.017,0,3.951-0.801,5.377-2.227l22.781-22.781c2.97-2.97,2.97-7.784,0-10.753c-2.97-2.97-7.784-2.97-10.753,0L256,308.074    l-50.583-50.584c-11.862-11.862-11.862-31.164,0-43.026c11.863-11.863,31.164-11.862,43.026,0l2.181,2.181    c1.427,1.427,3.36,2.227,5.378,2.227c2.018,0,3.951-0.802,5.376-2.227l2.18-2.18c5.746-5.746,13.386-8.911,21.513-8.911    c8.127,0,15.767,3.165,21.513,8.911c11.862,11.862,11.862,31.164,0,43.026l-17.211,17.211c-2.97,2.97-2.97,7.784,0,10.753    c2.97,2.97,7.784,2.97,10.753,0l17.211-17.211C335.13,250.453,335.13,221.503,317.338,203.711z"/>
	</g>
</g>
<g>
</g>
<g>
</g>
<g>
</g>
<g>
</g>
<g>
</g>
<g>
</g>
<g>
</g>
<g>
</g>
<g>
</g>
<g>
</g>
<g>
</g>
<g>
</g>
<g>
</g>
<g>
</g>
<g>
</g>
</svg>
