<?xml version="1.0" encoding="iso-8859-1"?>
<!-- Generator: Adobe Illustrator 19.0.0, SVG Export Plug-In . SVG Version: 6.00 Build 0)  -->
<svg xmlns="http://www.w3.org/2000/svg" xmlns:xlink="http://www.w3.org/1999/xlink" version="1.1" id="Layer_1" x="0px" y="0px" viewBox="0 0 512 512" style="enable-background:new 0 0 512 512;" xml:space="preserve">
<g>
	<g>
		<path d="M257.229,43.326c-68.071,0-132.179,16.467-180.512,46.369C27.245,120.3,0,161.378,0,205.36    c0,43.982,27.245,85.06,76.717,115.665c27.953,17.293,61.187,30.081,97.407,37.802v52.578h-12.503    c-2.238-27.117-25.007-48.502-52.69-48.502s-50.452,21.385-52.69,48.502h-9.729v-95.467c0-4.199-3.404-7.604-7.604-7.604    s-7.604,3.405-7.604,7.604v103.071c0,4.199,3.404,7.604,7.604,7.604h18.255c5.008,23.987,26.316,42.062,51.769,42.062    c4.471,0,8.917-0.561,13.212-1.666c4.068-1.046,6.516-5.192,5.47-9.259s-5.191-6.518-9.26-5.469    c-3.058,0.787-6.228,1.185-9.422,1.185c-20.776,0-37.678-16.902-37.678-37.678c0-20.776,16.902-37.678,37.678-37.678    c20.776,0,37.678,16.902,37.678,37.678c0,7.552-2.223,14.834-6.43,21.061c-2.35,3.48-1.436,8.206,2.045,10.557    s8.207,1.436,10.557-2.045c3.865-5.721,6.529-12.075,7.918-18.75h21.028c4.2,0,7.604-3.405,7.604-7.604v-57.26    c21.857,3.722,44.644,5.646,67.897,5.646c4.2,0,7.604-3.405,7.604-7.604V50.93C264.833,46.731,261.428,43.326,257.229,43.326z     M249.625,352.116c-7.998-0.15-15.929-0.538-23.771-1.155v-187.6c0-4.199-3.404-7.604-7.604-7.604c-4.2,0-7.604,3.405-7.604,7.604    v186.101c-47.487-5.622-91.103-19.825-125.928-41.369c-44.824-27.73-69.51-64.215-69.51-102.732    c0-38.518,24.686-75.001,69.51-102.732c34.825-21.544,78.441-35.748,125.928-41.369v76.755c0,4.199,3.404,7.604,7.604,7.604    c4.2,0,7.604-3.404,7.604-7.604V59.76c7.842-0.615,15.773-1.005,23.771-1.155V352.116z"/>
	</g>
</g>
<g>
	<g>
		<path d="M507.299,171.633l-68.912-28.475c-3.88-1.605-8.327,0.243-9.932,4.123c-1.604,3.882,0.242,8.329,4.123,9.933    l68.912,28.475c0.95,0.392,1.933,0.578,2.901,0.578c2.986,0,5.819-1.771,7.031-4.702    C513.026,177.684,511.18,173.237,507.299,171.633z"/>
	</g>
</g>
<g>
	<g>
		<path d="M416.663,134.181L296.562,84.553c-3.881-1.604-8.327,0.243-9.932,4.123c-1.604,3.882,0.242,8.329,4.123,9.933    l120.101,49.628c0.95,0.392,1.933,0.578,2.901,0.578c2.986,0,5.819-1.771,7.031-4.702    C422.39,140.232,420.544,135.785,416.663,134.181z"/>
	</g>
</g>
<g>
	<g>
		<path d="M507.298,281.266l-210.735-87.081c-3.881-1.604-8.327,0.243-9.932,4.123c-1.604,3.881,0.242,8.328,4.123,9.932    l210.735,87.081c0.95,0.392,1.933,0.578,2.901,0.578c2.986,0,5.819-1.771,7.031-4.702    C513.026,287.316,511.179,282.87,507.298,281.266z"/>
	</g>
</g>
<g>
	<g>
		<path d="M507.298,390.897l-60.683-25.076c-3.879-1.604-8.327,0.243-9.932,4.123c-1.604,3.881,0.242,8.328,4.123,9.932    l60.683,25.076c0.95,0.392,1.933,0.578,2.901,0.578c2.986,0,5.819-1.771,7.031-4.702    C513.026,396.948,511.179,392.501,507.298,390.897z"/>
	</g>
</g>
<g>
	<g>
		<path d="M422.92,356.03l-126.358-52.214c-3.881-1.604-8.327,0.243-9.932,4.123c-1.604,3.881,0.242,8.328,4.123,9.932    l126.358,52.214c0.95,0.392,1.933,0.578,2.901,0.578c2.986,0,5.819-1.771,7.031-4.702    C428.648,362.081,426.802,357.634,422.92,356.03z"/>
	</g>
</g>
<g>
</g>
<g>
</g>
<g>
</g>
<g>
</g>
<g>
</g>
<g>
</g>
<g>
</g>
<g>
</g>
<g>
</g>
<g>
</g>
<g>
</g>
<g>
</g>
<g>
</g>
<g>
</g>
<g>
</g>
</svg>
