<?xml version="1.0" encoding="iso-8859-1"?>
<!-- Generator: Adobe Illustrator 19.0.0, SVG Export Plug-In . SVG Version: 6.00 Build 0)  -->
<svg xmlns="http://www.w3.org/2000/svg" xmlns:xlink="http://www.w3.org/1999/xlink" version="1.1" id="Layer_1" x="0px" y="0px" viewBox="0 0 512 512" style="enable-background:new 0 0 512 512;" xml:space="preserve">
<g>
	<g>
		<path d="M439.201,427.481c-8.051-8.051-21.15-8.049-29.201,0.001c-8.049,8.051-8.049,21.15,0,29.2c0,0,0,0,0.001,0.001    c4.025,4.025,9.312,6.037,14.599,6.037c5.288,0,10.577-2.012,14.601-6.037c3.9-3.9,6.047-9.085,6.047-14.6    C445.249,436.567,443.102,431.381,439.201,427.481z M428.454,445.935c-2.126,2.126-5.582,2.124-7.707,0    c-2.124-2.126-2.124-5.583,0-7.706c2.125-2.125,5.582-2.125,7.706,0c1.03,1.029,1.596,2.397,1.596,3.854    C430.049,443.539,429.483,444.907,428.454,445.935z"/>
	</g>
</g>
<g>
	<g>
		<path d="M505.873,89.519c-0.866-2.463-2.938-4.308-5.484-4.888c-2.542-0.578-5.212,0.19-7.058,2.037L435.04,144.95l-50.515-50.506    l58.29-58.29c1.846-1.846,2.615-4.512,2.037-7.059c-0.579-2.546-2.426-4.617-4.888-5.484c-18.927-6.659-39.312-7.919-58.956-3.644    c-20.185,4.393-38.608,14.469-53.278,29.14c-27.969,27.969-38.282,68.186-27.476,105.966l-44.254,44.254l-44.25-44.25    c10.809-37.782,0.495-78.001-27.477-105.974c-10.115-10.115-21.891-17.994-35.004-23.42c-3.88-1.604-8.324,0.238-9.928,4.117    c-1.605,3.878,0.237,8.323,4.116,9.928c11.258,4.658,21.374,11.429,30.068,20.123c25,24.999,33.583,61.386,22.401,94.96    c-0.908,2.73-0.198,5.74,1.837,7.775l253.169,253.165c14.518,14.518,14.517,38.142-0.001,52.66    c-7.032,7.032-16.383,10.906-26.328,10.906c-9.946,0-19.297-3.874-26.329-10.906l-65.945-65.945    c-2.968-2.967-7.779-2.969-10.748,0c-2.968,2.968-2.968,7.78,0,10.747l65.945,65.945c9.904,9.904,23.071,15.358,37.078,15.358    c14.006,0,27.173-5.455,37.078-15.358c20.444-20.445,20.444-53.71,0-74.155l-131.523-131.52l44.253-44.253    c37.779,10.805,77.997,0.491,105.966-27.477c14.67-14.671,24.746-33.094,29.139-53.278    C513.791,128.832,512.531,108.445,505.873,89.519z M469.629,191.006c-24.995,24.995-61.38,33.578-94.952,22.401    c-2.729-0.909-5.739-0.199-7.775,1.837l-47.492,47.492l-52.663-52.663l47.494-47.494c2.035-2.035,2.745-5.044,1.837-7.774    c-11.178-33.573-2.595-69.957,22.401-94.953c22.119-22.119,54.159-31.42,84.382-25.242l-54.458,54.458    c-1.425,1.426-2.225,3.358-2.225,5.374c0,2.016,0.8,3.949,2.226,5.373l61.263,61.253c2.967,2.968,7.78,2.968,10.746,0    l54.458-54.449C501.05,136.847,491.748,168.887,469.629,191.006z"/>
	</g>
</g>
<g>
	<g>
		<path d="M102.001,427.48c-3.9-3.899-9.085-6.047-14.6-6.047c-5.515,0-10.701,2.148-14.6,6.047    c-3.899,3.899-6.047,9.085-6.047,14.6c0,5.515,2.147,10.701,6.047,14.6c3.9,3.899,9.085,6.047,14.6,6.047    c5.515,0,10.701-2.148,14.6-6.047s6.047-9.085,6.047-14.6C108.049,436.565,105.901,431.379,102.001,427.48z M91.252,445.935    c-1.029,1.029-2.396,1.596-3.852,1.596c-1.456,0-2.823-0.566-3.852-1.596c-1.031-1.029-1.596-2.397-1.596-3.854    c0-1.456,0.566-2.824,1.596-3.854c1.029-1.03,2.396-1.596,3.852-1.596c1.456,0,2.823,0.566,3.852,1.596    c1.031,1.029,1.596,2.397,1.596,3.854C92.848,443.538,92.283,444.906,91.252,445.935z"/>
	</g>
</g>
<g>
	<g>
		<path d="M314.087,384.225L145.103,215.242c-2.036-2.036-5.043-2.746-7.776-1.837c-33.571,11.182-69.961,2.597-94.96-22.402    c-22.121-22.121-31.422-54.16-25.236-84.387l54.457,54.458c2.969,2.968,7.78,2.968,10.748,0l61.258-61.258    c1.425-1.425,2.225-3.358,2.225-5.373c0-2.015-0.8-3.949-2.225-5.373L89.137,34.612c9.616-1.975,19.57-2.438,29.329-1.33    c4.158,0.473,7.934-2.523,8.408-6.695c0.473-4.171-2.524-7.935-6.694-8.407c-16.183-1.836-32.831,0.044-48.146,5.433    c-2.463,0.867-4.308,2.938-4.887,5.485c-0.579,2.547,0.19,5.211,2.037,7.057l58.289,58.288l-50.511,50.511L18.674,86.665    c-1.846-1.846-4.509-2.616-7.059-2.037c-2.546,0.579-4.617,2.425-5.484,4.887c-6.661,18.927-7.923,39.314-3.649,58.96    c4.392,20.185,14.467,38.608,29.136,53.277c27.973,27.972,68.196,38.288,105.975,27.478l44.25,44.25L50.325,405.001    c-9.904,9.904-15.358,23.072-15.358,37.079s5.455,27.175,15.357,37.079c9.904,9.904,23.072,15.358,37.079,15.358    s27.175-5.454,37.08-15.358l131.521-131.521l47.334,47.334c1.484,1.483,3.43,2.226,5.374,2.226s3.89-0.742,5.374-2.226    C317.055,392.004,317.055,387.192,314.087,384.225z M113.734,468.412c-7.032,7.033-16.384,10.906-26.331,10.906    c-9.946,0-19.298-3.873-26.33-10.906c-7.033-7.033-10.907-16.385-10.907-26.332c0-9.947,3.873-19.299,10.907-26.332    l131.52-131.521l52.663,52.663L113.734,468.412z"/>
	</g>
</g>
<g>
</g>
<g>
</g>
<g>
</g>
<g>
</g>
<g>
</g>
<g>
</g>
<g>
</g>
<g>
</g>
<g>
</g>
<g>
</g>
<g>
</g>
<g>
</g>
<g>
</g>
<g>
</g>
<g>
</g>
</svg>
