<?xml version="1.0" encoding="iso-8859-1"?>
<!-- Generator: Adobe Illustrator 19.0.0, SVG Export Plug-In . SVG Version: 6.00 Build 0)  -->
<svg xmlns="http://www.w3.org/2000/svg" xmlns:xlink="http://www.w3.org/1999/xlink" version="1.1" id="Layer_1" x="0px" y="0px" viewBox="0 0 512 512" style="enable-background:new 0 0 512 512;" xml:space="preserve">
<g>
	<g>
		<path d="M437.019,74.981C388.668,26.629,324.38,0,256,0S123.332,26.629,74.981,74.981S0,187.62,0,256    s26.629,132.668,74.981,181.019C123.333,485.37,187.62,512,256,512s132.668-26.629,181.019-74.981    C485.371,388.668,512,324.38,512,256S485.371,123.332,437.019,74.981z M426.266,426.266    c-45.48,45.48-105.949,70.526-170.266,70.526s-124.786-25.046-170.266-70.526S15.208,320.317,15.208,256    S40.254,131.214,85.734,85.734S191.683,15.208,256,15.208s124.786,25.046,170.266,70.526S496.792,191.683,496.792,256    S471.746,380.786,426.266,426.266z"/>
	</g>
</g>
<g>
	<g>
		<path d="M411.27,100.73C369.796,59.256,314.654,36.415,256,36.415c-58.654,0-113.796,22.841-155.27,64.315    C59.255,142.204,36.415,197.346,36.415,256s22.841,113.796,64.315,155.27c41.474,41.474,96.617,64.315,155.27,64.315    c46.879,0,91.609-14.568,129.357-42.128c3.391-2.476,4.133-7.234,1.658-10.625s-7.234-4.135-10.625-1.657    c-35.125,25.647-76.754,39.203-120.388,39.203c-112.694,0-204.377-91.683-204.377-204.377S143.306,51.623,256,51.623    S460.377,143.306,460.377,256c0,54.591-21.26,105.915-59.861,144.517c-2.97,2.97-2.97,7.784,0,10.753    c2.97,2.969,7.783,2.971,10.754,0c41.474-41.474,64.315-96.616,64.315-155.27S452.745,142.204,411.27,100.73z"/>
	</g>
</g>
<g>
	<g>
		<path d="M256,66.345C151.424,66.345,66.345,151.424,66.345,256S151.424,445.655,256,445.655S445.655,360.576,445.655,256    S360.576,66.345,256,66.345z M426.32,218.245l-110.554,19.498c-0.645-2.105-1.394-4.164-2.248-6.168l97.188-56.113    C417.682,188.807,422.978,203.162,426.32,218.245z M362.147,117.665L342.91,140.59c-2.7,3.217-2.28,8.014,0.937,10.712    c1.424,1.195,3.159,1.779,4.884,1.779c2.171,0,4.325-0.924,5.829-2.716l19.233-22.92c11.205,10.276,21.07,21.991,29.294,34.854    l-97.195,56.117c-1.32-1.747-2.734-3.418-4.226-5.016l34.002-40.521c2.7-3.217,2.28-8.014-0.937-10.712    c-3.217-2.7-8.014-2.28-10.712,0.937l-33.997,40.515c-1.824-1.189-3.714-2.283-5.662-3.28l38.396-105.5    C336.921,100.729,350.148,108.436,362.147,117.665z M263.607,81.729c15.564,0.671,30.605,3.386,44.861,7.892l-38.397,105.503    c-2.116-0.489-4.272-0.87-6.464-1.138V81.729z M248.399,81.729v112.257c-2.192,0.268-4.348,0.648-6.464,1.138L203.537,89.619    C217.793,85.114,232.834,82.4,248.399,81.729z M189.251,94.838l38.396,105.499c-1.952,0.998-3.844,2.094-5.671,3.284    l-72.126-85.954C161.853,108.436,175.082,100.728,189.251,94.838z M138.207,127.447l72.127,85.955    c-1.49,1.597-2.904,3.266-4.223,5.011l-97.196-56.118C117.138,149.435,127.002,137.722,138.207,127.447z M101.297,175.458    l97.188,56.113c-0.856,2.005-1.605,4.065-2.25,6.17L85.68,218.246C89.022,203.161,94.32,188.805,101.297,175.458z M81.553,256    c0-7.719,0.51-15.32,1.487-22.777l110.554,19.496c-0.057,1.087-0.087,2.181-0.087,3.282c0,1.1,0.03,2.193,0.086,3.28    L83.039,278.775C82.063,271.318,81.553,263.719,81.553,256z M85.679,293.753l110.556-19.497c0.645,2.106,1.394,4.166,2.249,6.17    l-97.189,56.114C94.318,323.194,89.02,308.837,85.679,293.753z M108.915,349.702l97.196-56.117    c1.319,1.746,2.732,3.415,4.223,5.012l-72.128,85.956C127,374.277,117.136,362.564,108.915,349.702z M248.4,430.271    c-15.563-0.671-30.603-3.384-44.858-7.889l13.941-38.298c1.435-3.947-0.6-8.31-4.546-9.746c-3.946-1.436-8.31,0.598-9.746,4.544    l-13.935,38.281c-14.172-5.892-27.403-13.599-39.405-22.831l72.127-85.955c1.829,1.192,3.724,2.289,5.679,3.289l-15.578,42.798    c-1.437,3.947,0.598,8.31,4.544,9.746c0.859,0.312,1.737,0.46,2.601,0.46c3.105,0,6.021-1.917,7.146-5.005l15.575-42.788    c2.114,0.488,4.267,0.868,6.456,1.135V430.271z M208.716,256c0-26.072,21.212-47.284,47.284-47.284s47.284,21.212,47.284,47.284    S282.072,303.284,256,303.284S208.716,282.072,208.716,256z M263.607,430.272V318.013c2.189-0.267,4.342-0.648,6.456-1.136    l38.402,105.503C294.21,426.886,279.169,429.6,263.607,430.272z M322.752,417.161l-38.401-105.498    c1.952-0.998,3.845-2.094,5.672-3.284l72.126,85.955C350.147,403.565,336.919,411.271,322.752,417.161z M373.792,384.554    l-72.127-85.956c1.491-1.598,2.907-3.269,4.226-5.016l97.195,56.117C394.864,362.562,384.999,374.277,373.792,384.554z     M410.705,336.538l-97.188-56.113c0.855-2.005,1.604-4.065,2.248-6.169l110.554,19.498    C422.979,308.836,417.682,323.192,410.705,336.538z M318.406,259.279c0.057-1.086,0.086-2.179,0.086-3.278    c0-1.1-0.03-2.194-0.087-3.28l110.555-19.497c0.976,7.455,1.487,15.057,1.487,22.775c0,7.719-0.51,15.319-1.486,22.775    L318.406,259.279z"/>
	</g>
</g>
<g>
	<g>
		<path d="M256,233.075c-12.641,0-22.926,10.285-22.926,22.925c0,12.642,10.285,22.926,22.926,22.926s22.925-10.285,22.925-22.926    C278.925,243.359,268.641,233.075,256,233.075z M256,263.719c-4.256,0-7.719-3.462-7.719-7.719c0-4.255,3.462-7.718,7.719-7.718    c4.255,0,7.718,3.462,7.718,7.718C263.718,260.256,260.255,263.719,256,263.719z"/>
	</g>
</g>
<g>
</g>
<g>
</g>
<g>
</g>
<g>
</g>
<g>
</g>
<g>
</g>
<g>
</g>
<g>
</g>
<g>
</g>
<g>
</g>
<g>
</g>
<g>
</g>
<g>
</g>
<g>
</g>
<g>
</g>
</svg>
