<?xml version="1.0" encoding="iso-8859-1"?>
<!-- Generator: Adobe Illustrator 19.0.0, SVG Export Plug-In . SVG Version: 6.00 Build 0)  -->
<svg xmlns="http://www.w3.org/2000/svg" xmlns:xlink="http://www.w3.org/1999/xlink" version="1.1" id="Layer_1" x="0px" y="0px" viewBox="0 0 512 512" style="enable-background:new 0 0 512 512;" xml:space="preserve">
<g>
	<g>
		<path d="M476.845,134.307l-51.337-79.49c-1.401-2.169-3.807-3.479-6.388-3.479h-64.02c-4.2,0-7.604,3.405-7.604,7.604    s3.404,7.604,7.604,7.604h59.88l46.427,71.886l-46.427,71.887H49.145V66.547h280.608c4.2,0,7.604-3.405,7.604-7.604    s-3.404-7.604-7.604-7.604H268.91V7.604c0-4.199-3.404-7.604-7.604-7.604h-44.225c-4.2,0-7.604,3.405-7.604,7.604v43.735H41.541    c-4.2,0-7.604,3.405-7.604,7.604v158.981c0,4.199,3.404,7.604,7.604,7.604h167.937v89.306c0,4.199,3.404,7.604,7.604,7.604    s7.604-3.405,7.604-7.604v-89.306h29.017v271.265h-29.017V340.18c0-4.199-3.404-7.604-7.604-7.604s-7.604,3.405-7.604,7.604    v164.216c0,4.199,3.404,7.604,7.604,7.604h44.225c4.2,0,7.604-3.405,7.604-7.604V225.527h150.21c2.581,0,4.987-1.31,6.388-3.479    l51.337-79.491C478.468,140.047,478.468,136.819,476.845,134.307z M224.685,15.208h29.017v36.131h-29.017V15.208z"/>
	</g>
</g>
<g>
	<g>
		<path d="M108.974,117.473c4.2,0,7.604-3.405,7.604-7.604c0-4.199-3.404-7.604-7.604-7.604H86.439c-4.2,0-7.604,3.405-7.604,7.604    v57.127c0,4.199,3.404,7.604,7.604,7.604c4.2,0,7.604-3.405,7.604-7.604v-22.131h11.848c4.2,0,7.604-3.405,7.604-7.604    c0-4.199-3.404-7.604-7.604-7.604H94.043v-12.185H108.974z"/>
	</g>
</g>
<g>
	<g>
		<path d="M146.775,102.265c-4.2,0-7.604,3.405-7.604,7.604v57.127c0,4.199,3.404,7.604,7.604,7.604s7.604-3.405,7.604-7.604    v-57.127C154.379,105.67,150.976,102.265,146.775,102.265z"/>
	</g>
</g>
<g>
	<g>
		<path d="M261.995,102.265c-4.2,0-7.604,3.405-7.604,7.604v57.127c0,4.199,3.404,7.604,7.604,7.604c4.2,0,7.604-3.405,7.604-7.604    v-57.127C269.598,105.67,266.195,102.265,261.995,102.265z"/>
	</g>
</g>
<g>
	<g>
		<path d="M225.883,102.265c-4.2,0-7.604,3.405-7.604,7.604v31.021l-22.346-35.104c-1.816-2.852-5.297-4.163-8.542-3.217    c-3.245,0.946-5.477,3.92-5.477,7.301v57.127c0,4.199,3.404,7.604,7.604,7.604s7.604-3.405,7.604-7.604v-31.021l22.346,35.104    c1.421,2.234,3.864,3.522,6.415,3.521c0.707,0,1.422-0.099,2.127-0.304c3.245-0.946,5.477-3.92,5.477-7.301v-57.127    C233.487,105.67,230.083,102.265,225.883,102.265z"/>
	</g>
</g>
<g>
	<g>
		<path d="M397.667,102.265c-4.2,0-7.604,3.405-7.604,7.604v21.647h-21.157v-21.647c0-4.199-3.404-7.604-7.604-7.604    c-4.2,0-7.604,3.405-7.604,7.604v57.127c0,4.199,3.404,7.604,7.604,7.604c4.2,0,7.604-3.405,7.604-7.604v-20.272h21.157v20.272    c0,4.199,3.404,7.604,7.604,7.604s7.604-3.405,7.604-7.604v-57.127C405.271,105.67,401.868,102.265,397.667,102.265z"/>
	</g>
</g>
<g>
	<g>
		<path d="M312.12,130.828h-1.773c-3.682,0-6.677-2.996-6.677-6.677s2.996-6.677,6.677-6.677h16.055c4.2,0,7.604-3.405,7.604-7.604    c0-4.199-3.404-7.604-7.604-7.604h-16.055c-12.067,0-21.885,9.818-21.885,21.885c0,12.067,9.818,21.885,21.885,21.885h1.773    c3.682,0,6.677,2.996,6.677,6.677s-2.995,6.677-6.677,6.677h-16.055c-4.2,0-7.604,3.405-7.604,7.604s3.404,7.604,7.604,7.604    h16.055c12.067,0,21.885-9.818,21.885-21.885S324.187,130.828,312.12,130.828z"/>
	</g>
</g>
<g>
</g>
<g>
</g>
<g>
</g>
<g>
</g>
<g>
</g>
<g>
</g>
<g>
</g>
<g>
</g>
<g>
</g>
<g>
</g>
<g>
</g>
<g>
</g>
<g>
</g>
<g>
</g>
<g>
</g>
</svg>
