<?xml version="1.0" encoding="iso-8859-1"?>
<!-- Generator: Adobe Illustrator 19.0.0, SVG Export Plug-In . SVG Version: 6.00 Build 0)  -->
<svg xmlns="http://www.w3.org/2000/svg" xmlns:xlink="http://www.w3.org/1999/xlink" version="1.1" id="Layer_1" x="0px" y="0px" viewBox="0 0 512 512" style="enable-background:new 0 0 512 512;" xml:space="preserve">
<g>
	<g>
		<path d="M491.964,231.307l-164.117-62.16l16.189-7.372c9.063-4.124,19.386-5.124,29.063-2.817l32.493,7.771    c17.825,4.263,36.435,3.453,53.819-2.342c2.78-0.927,4.779-3.367,5.141-6.275c0.362-2.908-0.978-5.764-3.446-7.343l-45.533-29.145    c-24.674-15.785-55.758-19.014-83.144-8.637l-76.421,28.95l-76.445-28.954c-27.388-10.373-58.466-7.141-83.136,8.646    l-45.533,29.14c-2.468,1.58-3.808,4.436-3.446,7.343c0.361,2.908,2.361,5.348,5.141,6.275c17.384,5.795,35.993,6.605,53.816,2.343    l32.487-7.768c9.682-2.315,20.002-1.318,29.062,2.806l16.201,7.377l-164.111,62.16C8.951,231.565,0,240.655,0,251.812v1.929    c0,9.274,6.185,17.122,14.643,19.66l7.19,59.947c2.03,16.916,13.949,30.79,30.366,35.346l129.864,36.036    c2.58,0.717,5.35,0.021,7.288-1.83l44.123-42.173c1.183-1.13,1.969-2.612,2.243-4.225l5.072-29.88    c1.711-9.972,8.102-17.205,15.212-17.205c7.122,0,13.525,7.258,15.222,17.259l5.062,29.827c0.274,1.613,1.059,3.094,2.243,4.225    l44.123,42.173c1.434,1.371,3.322,2.107,5.255,2.107c0.678,0,1.362-0.091,2.033-0.277l129.864-36.036    c16.417-4.555,28.336-18.43,30.366-35.346l7.19-59.946c8.457-2.541,14.641-10.389,14.641-19.663v-1.929    C512,240.658,503.055,231.573,491.964,231.307z M337.818,127.21c22.914-8.681,48.918-5.98,69.559,7.225l30.12,19.28    c-9.442,1.044-19.032,0.458-28.367-1.774l-32.497-7.773c-12.954-3.089-26.767-1.753-38.897,3.766l-29.923,13.625l-30.338-11.49    L337.818,127.21z M174.258,147.93c-12.127-5.521-25.943-6.855-38.901-3.756l-32.487,7.768c-9.335,2.232-18.923,2.818-28.363,1.774    l30.12-19.277c20.637-13.209,46.638-15.913,69.551-7.234l274.784,104.076h-91.627L174.258,147.93z M120.102,371.753    l-10.144-20.687c-1.848-3.771-6.406-5.328-10.175-3.48c-3.771,1.849-5.329,6.405-3.48,10.175l4.192,8.551l-44.232-12.274    c-10.45-2.901-18.039-11.733-19.33-22.503l-6.869-57.265h25.302l31.154,63.537c1.321,2.694,4.022,4.258,6.832,4.258    c1.123,0,2.265-0.25,3.342-0.779c3.771-1.849,5.329-6.405,3.48-10.175l-27.871-56.841h25.782l51.866,105.765L120.102,371.753z     M222.061,346.077l-0.917,5.397l-39.179,37.445l-12.407-3.443L115.026,274.27h119.227L222.061,346.077z M256,294.208    c-3.515,0-6.894,0.702-10.047,1.996l3.724-21.934h12.651l3.725,21.936C262.898,294.911,259.517,294.208,256,294.208z     M397.023,370.331l-26.983-55.013c-1.849-3.771-6.405-5.328-10.175-3.479c-3.771,1.849-5.328,6.405-3.479,10.175l25.728,52.453    l-52.079,14.452l-39.173-37.44l-13.109-77.209h55.216l13.033,26.572c1.321,2.693,4.023,4.257,6.832,4.257    c1.124,0,2.266-0.25,3.343-0.779c3.771-1.849,5.328-6.405,3.479-10.175l-9.748-19.876h25.551l44.078,89.813L397.023,370.331z     M475.067,331.535c-1.292,10.77-8.88,19.603-19.332,22.504l-21.287,5.907l-42.047-85.675h89.535L475.067,331.535z     M496.792,253.742c0,2.935-2.387,5.322-5.322,5.322H20.531c-2.935,0-5.323-2.388-5.323-5.322v-1.929    c0-2.935,2.388-5.322,5.323-5.322h0.906c0.021,0,0.042,0.005,0.062,0.005c0.034,0,0.07-0.004,0.105-0.005H286.42    c4.199,0,7.604-3.405,7.604-7.604c0-4.199-3.405-7.604-7.604-7.604H63.048l140.609-53.257l33.988,15.474l-41.694,18.986    c-3.822,1.741-5.509,6.249-3.77,10.072c1.275,2.8,4.036,4.455,6.925,4.455c1.054,0,2.125-0.22,3.147-0.685l53.742-24.472    l64.638,29.428h-9.881c-4.199,0-7.604,3.405-7.604,7.604c0,4.199,3.405,7.604,7.604,7.604H491.47c2.935,0,5.322,2.388,5.322,5.322    V253.742z"/>
	</g>
</g>
<g>
</g>
<g>
</g>
<g>
</g>
<g>
</g>
<g>
</g>
<g>
</g>
<g>
</g>
<g>
</g>
<g>
</g>
<g>
</g>
<g>
</g>
<g>
</g>
<g>
</g>
<g>
</g>
<g>
</g>
</svg>
