<?xml version="1.0" encoding="iso-8859-1"?>
<!-- Generator: Adobe Illustrator 19.0.0, SVG Export Plug-In . SVG Version: 6.00 Build 0)  -->
<svg xmlns="http://www.w3.org/2000/svg" xmlns:xlink="http://www.w3.org/1999/xlink" version="1.1" id="Layer_1" x="0px" y="0px" viewBox="0 0 512 512" style="enable-background:new 0 0 512 512;" xml:space="preserve">
<g>
	<g>
		<path d="M508.676,502.849L405.536,6.061c-0.855-4.112-4.883-6.756-8.991-5.9c-4.112,0.854-6.753,4.879-5.9,8.991L493.785,505.94    c0.745,3.591,3.909,6.06,7.438,6.06c0.512,0,1.033-0.052,1.553-0.16C506.888,510.986,509.529,506.96,508.676,502.849z"/>
	</g>
</g>
<g>
	<g>
		<path d="M115.456,0.161c-4.107-0.853-8.136,1.787-8.991,5.9L3.324,502.849c-0.854,4.112,1.788,8.137,5.9,8.991    c0.522,0.109,1.04,0.16,1.553,0.16c3.527,0,6.692-2.47,7.438-6.06L121.355,9.152C122.209,5.04,119.567,1.015,115.456,0.161z"/>
	</g>
</g>
<g>
	<g>
		<path d="M475.263,503.052L386.191,6.264c-0.741-4.133-4.7-6.883-8.826-6.143c-4.133,0.741-6.884,4.693-6.143,8.827l19.531,108.933    h-57.505c-4.2,0-7.604,3.405-7.604,7.604c0,4.199,3.404,7.604,7.604,7.604h60.231l9.816,54.748H108.703l9.816-54.748h189.383    c4.2,0,7.604-3.405,7.604-7.604c0-4.199-3.404-7.604-7.604-7.604H121.246L140.777,8.948c0.741-4.133-2.008-8.086-6.143-8.827    c-4.127-0.739-8.086,2.008-8.826,6.143L55.983,395.719c-0.741,4.133,2.008,8.086,6.143,8.827c0.453,0.081,0.905,0.121,1.35,0.121    c3.612,0,6.816-2.583,7.475-6.264l35.027-195.358h300.046l54.27,302.691c0.659,3.679,3.864,6.264,7.475,6.264    c0.445,0,0.897-0.04,1.35-0.121C473.253,511.137,476.003,507.185,475.263,503.052z"/>
	</g>
</g>
<g>
	<g>
		<path d="M59.696,418.098c-4.128-0.739-8.085,2.008-8.826,6.143l-14.131,78.812c-0.741,4.133,2.008,8.086,6.143,8.827    c0.453,0.081,0.905,0.121,1.35,0.121c3.612,0,6.816-2.583,7.475-6.264l14.131-78.812C66.58,422.791,63.829,418.839,59.696,418.098    z"/>
	</g>
</g>
<g>
	<g>
		<path d="M143.023,261.848c4.2,0,7.604-3.404,7.604-7.604c0-4.199-3.405-7.603-7.605-7.603h-20.537    c-3.56,0-6.643,2.469-7.419,5.942l-5.915,26.413c-0.003,0.015-0.007,0.029-0.01,0.045l-6.849,30.582    c-0.918,4.098,1.661,8.164,5.759,9.082c0.56,0.126,1.118,0.186,1.669,0.186c3.482,0,6.62-2.406,7.413-5.944l5.55-24.783h13.389    c4.2,0,7.604-3.405,7.604-7.604c0-4.199-3.404-7.604-7.604-7.604h-9.983l2.487-11.108H143.023z"/>
	</g>
</g>
<g>
	<g>
		<path d="M174.922,246.712c-4.163-0.571-7.997,2.335-8.57,6.495l-7.856,57.04c-0.573,4.161,2.335,7.997,6.495,8.57    c0.353,0.049,0.702,0.072,1.047,0.072c3.739,0,6.998-2.759,7.523-6.568l7.856-57.04    C181.991,251.122,179.083,247.285,174.922,246.712z"/>
	</g>
</g>
<g>
	<g>
		<path d="M277.434,254.069c-0.098-4.198-3.532-7.52-7.778-7.425c-4.198,0.097-7.523,3.58-7.425,7.778l1.323,57.04    c0.096,4.139,3.482,7.427,7.599,7.427c0.06,0,0.119,0,0.179-0.002c4.198-0.097,7.523-3.58,7.425-7.778L277.434,254.069z"/>
	</g>
</g>
<g>
	<g>
		<path d="M409.706,309.624l-6.572-29.348c-0.003-0.016-0.007-0.032-0.011-0.049l-6.191-27.644    c-0.917-4.098-4.981-6.676-9.081-5.759c-4.098,0.918-6.676,4.984-5.759,9.082l4.094,18.283h-21.842l-3.458-21.17    c-0.678-4.145-4.586-6.956-8.73-6.279c-4.145,0.676-6.955,4.586-6.279,8.73l9.316,57.04c0.61,3.73,3.835,6.379,7.496,6.379    c0.407,0,0.82-0.032,1.235-0.1c4.145-0.676,6.955-4.586,6.279-8.73l-3.375-20.662h22.764l5.273,23.55    c0.792,3.539,3.932,5.944,7.413,5.944c0.551,0,1.109-0.06,1.669-0.186C408.046,317.788,410.624,313.722,409.706,309.624z"/>
	</g>
</g>
<g>
	<g>
		<path d="M239.001,246.644c-4.235-0.115-7.7,3.183-7.821,7.382l-0.834,28.923l-17.635-32.344c-1.608-2.948-4.964-4.491-8.245-3.801    c-3.286,0.693-5.728,3.459-6.009,6.805l-4.78,57.04c-0.351,4.185,2.758,7.861,6.943,8.212c4.16,0.356,7.861-2.757,8.212-6.942    l2.663-31.776l18.963,34.781c1.354,2.483,3.94,3.964,6.675,3.964c0.587,0,1.182-0.068,1.772-0.21    c3.342-0.801,5.73-3.741,5.83-7.175l1.646-57.04C246.503,250.267,243.198,246.765,239.001,246.644z"/>
	</g>
</g>
<g>
	<g>
		<path d="M338.19,295.142c-1.395-11.934-11.438-21.283-22.864-21.283h-1.689c-3.475,0-6.749-3.199-7.007-6.844    c-0.105-1.506,0.324-2.86,1.213-3.813c0.575-0.617,1.611-1.353,3.277-1.353h14.632c4.2,0,7.604-3.404,7.604-7.604    c0-4.199-3.404-7.604-7.604-7.604H311.12c-5.566,0-10.681,2.199-14.403,6.193c-3.797,4.075-5.664,9.491-5.258,15.252    c0.818,11.569,10.766,20.981,22.177,20.981h1.689c3.709,0,7.263,3.591,7.76,7.842c0.24,2.056-0.273,3.967-1.406,5.241    c-0.904,1.016-2.088,1.531-3.516,1.531h-16.031c-4.2,0-7.604,3.405-7.604,7.604c0,4.199,3.404,7.604,7.604,7.604h16.031    c5.789,0,11.073-2.354,14.877-6.63C337.058,307.745,338.934,301.507,338.19,295.142z"/>
	</g>
</g>
<g>
</g>
<g>
</g>
<g>
</g>
<g>
</g>
<g>
</g>
<g>
</g>
<g>
</g>
<g>
</g>
<g>
</g>
<g>
</g>
<g>
</g>
<g>
</g>
<g>
</g>
<g>
</g>
<g>
</g>
</svg>
