<?xml version="1.0" encoding="iso-8859-1"?>
<!-- Generator: Adobe Illustrator 19.0.0, SVG Export Plug-In . SVG Version: 6.00 Build 0)  -->
<svg xmlns="http://www.w3.org/2000/svg" xmlns:xlink="http://www.w3.org/1999/xlink" version="1.1" id="Layer_1" x="0px" y="0px" viewBox="0 0 511.999 511.999" style="enable-background:new 0 0 511.999 511.999;" xml:space="preserve">
<g>
	<g>
		<path d="M392.763,49.167c-38.637,0-70.07,31.434-70.07,70.07c0,38.636,31.434,70.07,70.07,70.07    c38.636,0,70.07-31.433,70.07-70.07C462.833,80.6,431.4,49.167,392.763,49.167z M392.763,173.866    c-30.123,0-54.628-24.506-54.628-54.628c0-30.122,24.507-54.628,54.628-54.628c30.122,0,54.628,24.507,54.628,54.628    C447.391,149.359,422.885,173.866,392.763,173.866z"/>
	</g>
</g>
<g>
	<g>
		<path d="M119.237,49.167c-38.637,0-70.07,31.434-70.07,70.07c0,38.636,31.433,70.07,70.07,70.07    c38.637,0,70.07-31.434,70.07-70.07S157.875,49.167,119.237,49.167z M119.237,173.867c-30.122,0-54.628-24.507-54.628-54.628    c0-30.122,24.506-54.628,54.628-54.628c30.123,0,54.628,24.507,54.628,54.628C173.866,149.36,149.36,173.867,119.237,173.867z"/>
	</g>
</g>
<g>
	<g>
		<path d="M442.3,343.218c-13.234-13.235-30.83-20.525-49.546-20.526c-0.001,0-0.002,0-0.003,0    c-18.715,0-36.311,7.288-49.545,20.522c-13.235,13.234-20.525,30.83-20.526,49.546c-0.001,38.637,31.43,70.073,70.067,70.074    c0.001,0,0.001,0,0.003,0c12.138,0,24.102-3.155,34.596-9.123c3.707-2.108,5.002-6.822,2.895-10.529    c-2.108-3.706-6.821-5.002-10.529-2.895c-8.172,4.648-17.495,7.104-26.961,7.104h-0.001c-14.593,0-28.311-5.684-38.628-16.002    s-15.999-24.037-15.999-38.628c0-14.592,5.684-28.311,16.002-38.627s24.037-15.999,38.628-15.999    c14.592,0,28.311,5.684,38.627,16.002c10.316,10.318,15.999,24.037,15.999,38.628c0,10.198-2.827,20.142-8.173,28.757    c-2.248,3.624-1.134,8.384,2.489,10.632c3.624,2.248,8.383,1.134,10.631-2.488c6.865-11.062,10.493-23.821,10.495-36.899    C462.823,374.05,455.535,356.454,442.3,343.218z"/>
	</g>
</g>
<g>
	<g>
		<path d="M461.565,295.381c-12.37-8.756-19.755-22.991-19.755-38.079v-2.597c0-14.857,7.172-28.876,19.203-37.66    c5.901-4.138,11.477-8.839,16.651-14.085c22.583-22.899,34.772-53.234,34.323-85.419C511.083,52.582,457.664,0,392.755,0    c-0.231,0-0.467,0.001-0.698,0.002c-38.547,0.223-74.797,19.228-96.968,50.835c-8.496,12.114-22.626,19.346-37.795,19.346h-2.586    c-15.169,0-29.299-7.232-37.795-19.346c-4.985-7.107-10.761-13.684-17.168-19.552c-3.144-2.879-8.029-2.666-10.908,0.479    c-2.88,3.145-2.665,8.029,0.479,10.908c5.581,5.111,10.613,10.841,14.954,17.032c11.385,16.231,30.24,25.92,50.438,25.92h2.586    c20.198,0,39.053-9.689,50.438-25.92c19.304-27.52,50.861-44.066,84.415-44.26c0.205-0.001,0.405-0.002,0.608-0.002    c56.499,0,103.004,45.773,103.792,102.312c0.39,28.019-10.221,54.428-29.878,74.36c-19.662,19.937-45.909,30.917-73.907,30.917    c-33.63,0-65.324-16.413-84.78-43.905c-11.645-16.454-30.593-26.277-50.685-26.277h-2.595c-20.092,0-39.04,9.823-50.685,26.277    c-19.457,27.492-51.151,43.905-84.78,43.905c-27.998,0-54.245-10.98-73.907-30.917c-19.657-19.933-30.268-46.342-29.878-74.36    C16.241,61.212,62.742,15.442,119.246,15.442c0.201,0,0.408,0,0.608,0.002c16.844,0.098,33.545,4.325,48.296,12.222    c3.76,2.014,8.438,0.597,10.451-3.163c2.013-3.76,0.597-8.439-3.163-10.451c-16.959-9.079-36.148-13.938-55.495-14.05    C119.709,0.001,119.479,0,119.245,0C54.341,0,0.917,52.585,0.012,117.54c-0.448,32.185,11.741,62.519,34.324,85.419    c22.586,22.904,52.739,35.517,84.902,35.517c38.632,0,75.038-18.852,97.385-50.427c8.755-12.371,22.991-19.756,38.08-19.756h2.595    c15.089,0,29.325,7.385,38.08,19.756c22.347,31.575,58.752,50.427,97.385,50.427c13.051,0,25.77-2.078,37.786-6.075    c-2.721,7.033-4.18,14.582-4.18,22.303v2.597c0,20.092,9.822,39.04,26.275,50.685c27.492,19.459,43.903,51.153,43.902,84.782    c-0.001,27.999-10.981,54.245-30.92,73.906c-19.579,19.306-45.403,29.885-72.865,29.885c-0.498,0-0.998-0.003-1.497-0.01    c-56.744-0.794-102.637-47.629-102.305-104.406c0.196-33.555,16.743-65.11,44.265-84.413    c16.231-11.385,25.921-30.24,25.922-50.436v-2.587c0-4.983-0.594-9.958-1.766-14.789c-1.006-4.144-5.178-6.688-9.324-5.684    c-4.144,1.006-6.689,5.179-5.684,9.324c0.882,3.64,1.33,7.391,1.33,11.146v2.587c0,15.168-7.233,29.298-19.347,37.795    c-31.609,22.17-50.614,58.418-50.839,96.965c-0.382,65.222,52.343,119.025,117.531,119.936c0.575,0.008,1.145,0.011,1.719,0.011    c31.542,0,61.211-12.154,83.701-34.331c22.905-22.585,35.518-52.737,35.52-84.9C511.99,354.136,493.14,317.73,461.565,295.381z"/>
	</g>
</g>
<g>
</g>
<g>
</g>
<g>
</g>
<g>
</g>
<g>
</g>
<g>
</g>
<g>
</g>
<g>
</g>
<g>
</g>
<g>
</g>
<g>
</g>
<g>
</g>
<g>
</g>
<g>
</g>
<g>
</g>
</svg>
