<?xml version="1.0" encoding="iso-8859-1"?>
<!-- Generator: Adobe Illustrator 19.0.0, SVG Export Plug-In . SVG Version: 6.00 Build 0)  -->
<svg xmlns="http://www.w3.org/2000/svg" xmlns:xlink="http://www.w3.org/1999/xlink" version="1.1" id="Layer_1" x="0px" y="0px" viewBox="0 0 512 512" style="enable-background:new 0 0 512 512;" xml:space="preserve">
<g>
	<g>
		<path d="M366.638,196.962c-24.877,0-45.117-20.239-45.117-45.117v-22.812h8.618c4.2,0,7.604-3.405,7.604-7.604v-20.784h2.535    c4.2,0,7.604-3.405,7.604-7.604c0-4.199-3.404-7.604-7.604-7.604h-2.535v-5.576c0-4.199-3.404-7.604-7.604-7.604h-26.36    c-4.2,0-7.604,3.405-7.604,7.604v41.568c0,4.199,3.404,7.604,7.604,7.604h2.535v22.812c0,33.264,27.061,60.325,60.325,60.325    c24.877,0,45.117,20.239,45.117,45.117v130.788c0,24.878-20.24,45.117-45.117,45.117H242.44V256.273    c0-4.199-3.404-7.604-7.604-7.604s-7.604,3.405-7.604,7.604v213.418h-64.755V215.001h64.755v15.926    c0,4.199,3.404,7.604,7.604,7.604s7.604-3.405,7.604-7.604v-23.53c0-4.199-3.404-7.604-7.604-7.604h-3.572V176.98    c0-4.199-3.404-7.604-7.604-7.604h-10.56V58.366h83.966c4.2,0,7.604-3.405,7.604-7.604V7.604c0-4.199-3.404-7.604-7.604-7.604    H92.642c-4.2,0-7.604,3.405-7.604,7.604v43.158c0,4.199,3.404,7.604,7.604,7.604h83.967v111.009h-10.56    c-4.2,0-7.604,3.405-7.604,7.604v22.814h-3.573c-4.2,0-7.604,3.405-7.604,7.604v262.294h-40.966c-4.2,0-7.604,3.405-7.604,7.604    v27.102c0,4.199,3.404,7.604,7.604,7.604h44.384c4.2,0,7.604-3.405,7.604-7.604s-3.404-7.604-7.604-7.604h-36.78v-11.894h161.896    v11.894h-99.769c-4.2,0-7.604,3.405-7.604,7.604s3.404,7.604,7.604,7.604h107.373c4.2,0,7.604-3.405,7.604-7.604v-27.102    c0-4.199-3.404-7.604-7.604-7.604H242.44v-21.291h124.198c33.264,0,60.325-27.061,60.325-60.325V257.287    C426.962,224.023,399.9,196.962,366.638,196.962z M311.382,87.465h11.152v26.36h-11.152V87.465z M100.246,43.158v-27.95H289.46    v27.95H100.246z M197.891,58.366v111.009h-6.073V58.366H197.891z M173.653,184.583h42.402v15.21h-42.402V184.583z"/>
	</g>
</g>
<g>
</g>
<g>
</g>
<g>
</g>
<g>
</g>
<g>
</g>
<g>
</g>
<g>
</g>
<g>
</g>
<g>
</g>
<g>
</g>
<g>
</g>
<g>
</g>
<g>
</g>
<g>
</g>
<g>
</g>
</svg>
