<?xml version="1.0" encoding="iso-8859-1"?>
<!-- Generator: Adobe Illustrator 19.0.0, SVG Export Plug-In . SVG Version: 6.00 Build 0)  -->
<svg xmlns="http://www.w3.org/2000/svg" xmlns:xlink="http://www.w3.org/1999/xlink" version="1.1" id="Layer_1" x="0px" y="0px" viewBox="0 0 512 512" style="enable-background:new 0 0 512 512;" xml:space="preserve">
<g>
	<g>
		<path d="M511.953,279.112c-5.574-49.914-30.117-95.039-69.112-127.063c-3.243-2.664-8.037-2.196-10.702,1.05    c-2.665,3.245-2.195,8.037,1.05,10.702c33.561,27.562,55.498,65.649,62.417,108.02c-54.949-1.583-110.19,26.836-115.107,29.428    c-2.502,1.087-27.484,11.768-60.572,19.591c-31.707,7.497-77.386,13.774-114.926,1.11c-23.836-8.041-54.013-12.597-89.694-13.541    c-0.068-0.001-0.137-0.002-0.205-0.002c-4.106,0-7.488,3.274-7.598,7.403c-0.11,4.198,3.202,7.691,7.4,7.803    c34.161,0.904,62.838,5.193,85.234,12.748c17.332,5.847,35.971,8.132,54.539,8.132c53.341,0,106.023-18.873,124.974-26.428    l19.511,47.889c1.3,3.192,1.149,6.784-0.417,9.855c-1.565,3.07-4.382,5.302-7.728,6.123    c-56.425,13.859-147.942,3.384-189.022-14.872c-45.891-20.396-131.352-13.038-150.403-11.074l-27.758-27.759    c15.183-1.829,40.384-4.295,68.644-4.727c4.199-0.064,7.551-3.52,7.487-7.719c-0.064-4.16-3.455-7.488-7.601-7.488    c-0.04,0-0.079,0-0.119,0.001c-25.046,0.382-47.426,2.274-63.063,3.989c44.495-42.973,169.105-159.637,227.56-176.686    c0.203-0.059,0.404-0.127,0.601-0.203c20.261-7.796,41.645-11.749,63.557-11.749c33.48,0,66.074,9.387,94.255,27.147    c3.554,2.239,8.248,1.174,10.487-2.38c2.24-3.553,1.174-8.248-2.379-10.487c-30.613-19.292-66.01-29.488-102.364-29.488    c-23.681,0-46.803,4.256-68.726,12.651C176.8,143.389,9.329,310.27,2.227,317.372c-2.97,2.97-2.969,7.784,0,10.753l41.189,41.189    c1.646,1.647,3.958,2.448,6.27,2.175c0.985-0.117,99.156-11.412,146.133,9.465c29.948,13.31,82.984,22.608,132.806,22.608    c23.673,0,46.618-2.099,66.019-6.864c7.642-1.877,14.075-6.973,17.648-13.983c3.574-7.012,3.922-15.213,0.951-22.501    l-19.729-48.425c4.735-2.231,11.986-5.458,20.954-8.851l3.059,12.859l-8.896,8.896c-2.224,2.224-2.85,5.59-1.572,8.465    l21.968,49.428c1.222,2.751,3.949,4.516,6.948,4.516c0.055,0,0.108,0,0.162-0.002c0.472-0.01,11.712-0.281,24.368-3.294    c18.287-4.354,30.203-12.09,35.418-22.995c10.533-22.023,15.823-77.77,16.043-80.131c0.014-0.155,0.014-0.308,0.019-0.462    c0.004-0.088,0.013-0.176,0.012-0.267C511.999,279.667,511.984,279.388,511.953,279.112z M482.207,354.251    c-5.668,11.849-28.844,16.237-41.418,17.349l-17.71-39.845l8.207-8.206c1.867-1.867,2.631-4.567,2.021-7.137l-4.402-18.511    c19.507-6.253,43.593-11.652,67.109-10.841C493.862,306.043,488.917,340.221,482.207,354.251z"/>
	</g>
</g>
<g>
</g>
<g>
</g>
<g>
</g>
<g>
</g>
<g>
</g>
<g>
</g>
<g>
</g>
<g>
</g>
<g>
</g>
<g>
</g>
<g>
</g>
<g>
</g>
<g>
</g>
<g>
</g>
<g>
</g>
</svg>
