<?xml version="1.0" encoding="iso-8859-1"?>
<!-- Generator: Adobe Illustrator 19.0.0, SVG Export Plug-In . SVG Version: 6.00 Build 0)  -->
<svg xmlns="http://www.w3.org/2000/svg" xmlns:xlink="http://www.w3.org/1999/xlink" version="1.1" id="Layer_1" x="0px" y="0px" viewBox="0 0 512 512" style="enable-background:new 0 0 512 512;" xml:space="preserve">
<g>
	<g>
		<path d="M412.963,41.83l-7.427-35.77c-0.855-4.112-4.883-6.752-8.991-5.9c-4.112,0.854-6.753,4.879-5.899,8.991l7.427,35.77    c0.745,3.591,3.908,6.06,7.437,6.06c0.512,0,1.032-0.052,1.553-0.16C411.175,49.967,413.816,45.942,412.963,41.83z"/>
	</g>
</g>
<g>
	<g>
		<path d="M508.677,502.849L419.205,71.895c-0.855-4.112-4.88-6.755-8.991-5.9c-4.112,0.854-6.753,4.879-5.9,8.991l89.473,430.953    c0.745,3.59,3.908,6.06,7.437,6.06c0.512,0,1.032-0.052,1.553-0.16C506.889,510.986,509.53,506.961,508.677,502.849z"/>
	</g>
</g>
<g>
	<g>
		<path d="M115.455,0.16c-4.111-0.853-8.137,1.787-8.991,5.9L3.323,502.849c-0.854,4.112,1.787,8.137,5.9,8.991    c0.521,0.108,1.041,0.16,1.553,0.16c3.528,0,6.692-2.47,7.438-6.06L121.354,9.151C122.208,5.04,119.567,1.014,115.455,0.16z"/>
	</g>
</g>
<g>
	<g>
		<path d="M475.262,503.053L386.192,6.264c-0.741-4.135-4.695-6.883-8.827-6.143c-4.135,0.741-6.884,4.693-6.143,8.827    l89.07,496.789c0.66,3.68,3.864,6.264,7.476,6.264c0.445,0,0.897-0.04,1.35-0.121    C473.253,511.138,476.003,507.186,475.262,503.053z"/>
	</g>
</g>
<g>
	<g>
		<path d="M77.557,318.466c-4.133-0.739-8.085,2.009-8.827,6.143L36.737,503.053c-0.741,4.133,2.009,8.086,6.143,8.827    c0.454,0.081,0.906,0.121,1.352,0.121c3.611,0,6.816-2.584,7.476-6.264L83.7,327.293C84.441,323.159,81.69,319.207,77.557,318.466    z"/>
	</g>
</g>
<g>
	<g>
		<path d="M134.635,0.121c-4.133-0.741-8.086,2.009-8.827,6.143L74.203,294.086c-0.741,4.133,2.009,8.086,6.143,8.827    c0.454,0.081,0.906,0.121,1.352,0.121c3.611,0,6.816-2.583,7.476-6.264L140.778,8.947C141.519,4.814,138.768,0.862,134.635,0.121z    "/>
	</g>
</g>
<g>
	<g>
		<path d="M279.125,126.756c-0.08-4.142-3.461-7.457-7.603-7.457H240.48c-4.143,0-7.523,3.315-7.603,7.457l-1.407,72.89    c-0.04,2.042,0.744,4.014,2.174,5.472c1.43,1.458,3.386,2.279,5.428,2.279h33.857c2.042,0,3.999-0.821,5.43-2.279    c1.43-1.458,2.213-3.43,2.174-5.472L279.125,126.756z M246.824,192.189l1.114-57.683h16.124l1.114,57.683H246.824z"/>
	</g>
</g>
<g>
	<g>
		<path d="M284.963,429.214c-0.082-4.199-3.598-7.547-7.75-7.456c-4.199,0.082-7.537,3.551-7.456,7.75l1.3,67.282H240.94    l2.581-133.66h24.955l0.754,39.072c0.081,4.199,3.566,7.541,7.75,7.456c4.199-0.082,7.537-3.551,7.456-7.75l-0.898-46.529    c-0.08-4.141-3.46-7.457-7.603-7.457h-39.872c-4.143,0-7.523,3.316-7.603,7.457l-2.874,148.867    c-0.04,2.042,0.744,4.014,2.175,5.472c1.43,1.458,3.386,2.279,5.428,2.279h45.621c2.043,0,3.999-0.821,5.427-2.279    c1.431-1.458,2.214-3.43,2.175-5.472L284.963,429.214z"/>
	</g>
</g>
<g>
	<g>
		<path d="M276.817,7.456C276.736,3.315,273.356,0,269.214,0h-26.431c-4.142,0-7.522,3.315-7.604,7.455l-0.598,30.689    c-0.04,2.042,0.744,4.015,2.174,5.473c1.431,1.459,3.386,2.28,5.429,2.28h27.628c2.043,0,4-0.821,5.43-2.279    c1.431-1.459,2.213-3.431,2.174-5.473L276.817,7.456z M249.938,30.689l0.302-15.482h11.516l0.302,15.482H249.938z"/>
	</g>
</g>
<g>
	<g>
		<path d="M277.76,56.396c-0.081-4.141-3.461-7.456-7.603-7.456H241.84c-4.143,0-7.523,3.314-7.603,7.456l-0.923,47.53    c-0.039,2.042,0.743,4.014,2.174,5.472c1.43,1.459,3.386,2.28,5.428,2.28h30.162c2.043,0,3.999-0.822,5.43-2.28    c1.431-1.458,2.213-3.43,2.174-5.472L277.76,56.396z M248.669,96.469l0.628-32.322h13.401l0.628,32.322H248.669z"/>
	</g>
</g>
<g>
	<g>
		<path d="M281.061,227.019c-0.08-4.142-3.461-7.457-7.603-7.457h-34.914c-4.143,0-7.523,3.315-7.603,7.457l-1.792,92.764    c-0.039,2.042,0.744,4.014,2.174,5.472c1.43,1.458,3.386,2.279,5.428,2.279h38.497c2.042,0,3.999-0.822,5.43-2.279    c1.43-1.458,2.213-3.43,2.174-5.472L281.061,227.019z M244.504,312.326l1.497-77.556h19.997l1.497,77.556H244.504z"/>
	</g>
</g>
<g>
</g>
<g>
</g>
<g>
</g>
<g>
</g>
<g>
</g>
<g>
</g>
<g>
</g>
<g>
</g>
<g>
</g>
<g>
</g>
<g>
</g>
<g>
</g>
<g>
</g>
<g>
</g>
<g>
</g>
</svg>
