<?xml version="1.0" encoding="iso-8859-1"?>
<!-- Generator: Adobe Illustrator 19.0.0, SVG Export Plug-In . SVG Version: 6.00 Build 0)  -->
<svg xmlns="http://www.w3.org/2000/svg" xmlns:xlink="http://www.w3.org/1999/xlink" version="1.1" id="Layer_1" x="0px" y="0px" viewBox="0 0 512 512" style="enable-background:new 0 0 512 512;" xml:space="preserve">
<g>
	<g>
		<path d="M335.161,82.917h-1.921v-1.858c0-1.836-0.186-3.63-0.534-5.364h11.743c13.44,0,24.375-10.934,24.375-24.375    c0-13.441-10.935-24.375-24.375-24.375h-55.198V15.208h1.39c4.199,0,7.604-3.405,7.604-7.604S294.84,0,290.641,0h-8.994h-53.888    h-8.994c-4.199,0-7.604,3.405-7.604,7.604s3.405,7.604,7.604,7.604h1.39v11.736h-1.903c-4.199,0-7.604,3.405-7.604,7.604    s3.405,7.604,7.604,7.604h1.903v11.735h-16.82c-14.982,0-27.17,12.189-27.17,27.17v1.858h-1.921    c-17.13,0-31.067,13.937-31.067,31.067v74.485c0,2.1,0.852,4.002,2.227,5.378c7.595,7.596,7.595,19.955,0,27.551    c-1.377,1.376-2.227,3.278-2.227,5.378v181.358c0,4.199,3.405,7.604,7.604,7.604c4.199,0,7.604-3.405,7.604-7.604V234.378h124.297    c4.199,0,7.604-3.405,7.604-7.604c0-4.199-3.405-7.604-7.604-7.604H164.334c2.62-7.459,2.62-15.64,0-23.098h180.735    c-2.62,7.459-2.62,15.64,0,23.098h-37.041c-4.199,0-7.604,3.405-7.604,7.604c0,4.199,3.405,7.604,7.604,7.604h42.991v249.594    c0,7.069-5.751,12.82-12.82,12.82H171.205c-7.069,0-12.82-5.751-12.82-12.82v-48.469c0-4.199-3.405-7.604-7.604-7.604    s-7.604,3.405-7.604,7.604v48.468c0,15.454,12.573,28.028,28.028,28.028H338.2c15.454,0,28.028-12.573,28.028-28.028V226.774    c0-2.1-0.852-4.002-2.227-5.378c-7.595-7.596-7.595-19.955,0-27.551c1.377-1.376,2.227-3.278,2.227-5.378v-74.485    C366.228,96.853,352.292,82.917,335.161,82.917z M289.25,42.152h55.199c5.054,0,9.167,4.112,9.167,9.167s-4.112,9.167-9.167,9.167    h-20.659c-4.761-4.107-10.953-6.598-17.719-6.598h-16.82V42.152z M235.363,15.208h38.68v11.736h-38.68V15.208z M235.363,42.152    h38.68v11.735h-38.68V42.152z M191.372,81.058c0-6.596,5.366-11.963,11.963-11.963h102.736c6.596,0,11.963,5.366,11.963,11.963    v1.858H191.372V81.058z M351.019,180.865H158.384v-66.881c0-8.745,7.114-15.859,15.859-15.859H335.16    c8.745,0,15.859,7.114,15.859,15.859V180.865z"/>
	</g>
</g>
<g>
	<g>
		<path d="M284.096,333.842l-24.016-24.016c-2.97-2.97-7.784-2.97-10.753,0l-24.016,24.016c-7.851,7.851-12.175,18.29-12.175,29.393    s4.324,21.543,12.175,29.393c7.851,7.851,18.29,12.175,29.393,12.175s21.541-4.324,29.393-12.175    c7.851-7.851,12.175-18.29,12.175-29.393S291.947,341.693,284.096,333.842z M273.342,381.876    c-10.279,10.276-27.002,10.278-37.28-0.001c-10.278-10.277-10.278-27.001,0-37.28l18.64-18.639l18.64,18.64    C283.62,354.874,283.62,371.597,273.342,381.876z"/>
	</g>
</g>
<g>
</g>
<g>
</g>
<g>
</g>
<g>
</g>
<g>
</g>
<g>
</g>
<g>
</g>
<g>
</g>
<g>
</g>
<g>
</g>
<g>
</g>
<g>
</g>
<g>
</g>
<g>
</g>
<g>
</g>
</svg>
