<?xml version="1.0" encoding="iso-8859-1"?>
<!-- Generator: Adobe Illustrator 19.0.0, SVG Export Plug-In . SVG Version: 6.00 Build 0)  -->
<svg xmlns="http://www.w3.org/2000/svg" xmlns:xlink="http://www.w3.org/1999/xlink" version="1.1" id="Layer_1" x="0px" y="0px" viewBox="0 0 511.999 511.999" style="enable-background:new 0 0 511.999 511.999;" xml:space="preserve">
<g>
	<g>
		<path d="M509.553,199.485L390.439,89.774c-0.057-0.053-0.121-0.091-0.183-0.133c-0.772-0.67-1.672-1.208-2.693-1.527    l-64.932-20.281V21.689c0-4.188-3.394-7.583-7.583-7.583H196.95c-4.189,0-7.583,3.395-7.583,7.583v46.144l-64.931,20.28    c-1.02,0.319-1.92,0.855-2.693,1.526c-0.063,0.044-0.126,0.082-0.184,0.135l-58.971,54.315c-3.081,2.837-3.278,7.635-0.441,10.716    c1.495,1.623,3.534,2.446,5.58,2.446c1.836,0,3.678-0.663,5.135-2.005l46.251-42.6v73.346    c-15.612,1.954-51.546,11.21-80.671,54.312l-21.105-33.918l34.277-31.572c3.081-2.837,3.278-7.635,0.441-10.716    c-2.837-3.081-7.635-3.278-10.716-0.441L2.446,199.485c-2.678,2.468-3.225,6.491-1.301,9.584l30.815,49.525    c0.006,0.01,0.013,0.02,0.019,0.03l13.049,20.973c1.423,2.286,3.891,3.578,6.443,3.578c1.018,0,2.051-0.206,3.035-0.637    l64.607-28.266V490.31c0,4.188,3.394,7.583,7.583,7.583H385.3c4.189,0,7.583-3.395,7.583-7.583V254.272l64.607,28.266    c0.985,0.431,2.017,0.637,3.036,0.637c2.551,0,5.019-1.292,6.442-3.578l13.044-20.964c0.01-0.016,0.02-0.031,0.029-0.048    l30.812-49.517C512.779,205.976,512.232,201.952,509.553,199.485z M119.114,237.718L54.44,266.014l-7.131-11.462    c13.675-22.308,30.845-38.123,51.095-47.022c8.36-3.673,15.649-5.386,20.711-6.186V237.718z M263.583,29.272h43.882v36.554    h-43.882V29.272z M204.533,29.272h43.883v36.554h-43.883V29.272z M134.281,100.929l28.353-8.856l12.925,76.671    c9.529,56.517-5.828,114.569-41.278,158.952V100.929z M248.417,341.631c-19.995,20.538-35.632,44.03-46.474,69.889    c-1.62,3.862,0.199,8.306,4.063,9.926c0.958,0.401,1.951,0.591,2.928,0.591c2.964,0,5.778-1.748,6.997-4.653    c8.049-19.202,18.95-37.011,32.487-53.157v118.501h-47.702c0.316-7.286,1.441-19.619,5.134-34.758    c0.993-4.069-1.5-8.172-5.57-9.165c-4.064-0.99-8.172,1.5-9.164,5.57c-4.091,16.767-5.284,30.325-5.591,38.353h-51.242V350.77    h-0.001c46.471-49.073,67.486-117.804,56.233-184.549l-13.27-78.712l20.862-6.516h50.31V341.631z M263.583,482.728V364.242    c24.291,29.047,35.971,58.724,41.559,79.769c4.5,16.95,5.796,30.808,6.141,38.717H263.583z M377.717,327.74    c-11.642-14.524-21.174-30.552-28.431-47.853c-1.62-3.862-6.063-5.679-9.925-4.061c-3.862,1.62-5.68,6.064-4.061,9.926    c10.136,24.171,24.406,46.029,42.417,65.031v131.941h-51.24v0.002c-0.329-8.597-1.67-23.53-6.507-41.971    c-6.795-25.905-22.095-63.895-56.387-99.133V80.993h50.31l20.861,6.516l-13.27,78.713c-5.134,30.451-3.755,61.033,4.099,90.894    c0.895,3.404,3.967,5.656,7.328,5.656c0.638,0,1.287-0.082,1.933-0.252c4.05-1.065,6.47-5.212,5.405-9.263    c-7.302-27.766-8.583-56.201-3.811-84.516l12.925-76.671l28.353,8.856V327.74z M457.558,266.014l-64.675-28.295V201.34    c5.061,0.799,12.344,2.512,20.712,6.189c20.25,8.9,37.419,24.714,51.094,47.022L457.558,266.014z M473.556,240.305    c-29.13-43.11-65.059-52.36-80.672-54.312v-73.346l101.776,93.741L473.556,240.305z"/>
	</g>
</g>
<g>
</g>
<g>
</g>
<g>
</g>
<g>
</g>
<g>
</g>
<g>
</g>
<g>
</g>
<g>
</g>
<g>
</g>
<g>
</g>
<g>
</g>
<g>
</g>
<g>
</g>
<g>
</g>
<g>
</g>
</svg>
