<?xml version="1.0" encoding="iso-8859-1"?>
<!-- Generator: Adobe Illustrator 18.0.0, SVG Export Plug-In . SVG Version: 6.00 Build 0)  -->
<!DOCTYPE svg PUBLIC "-//W3C//DTD SVG 1.1//EN" "http://www.w3.org/Graphics/SVG/1.1/DTD/svg11.dtd">
<svg version="1.1" id="Capa_1" xmlns="http://www.w3.org/2000/svg" xmlns:xlink="http://www.w3.org/1999/xlink" x="0px" y="0px"
	 viewBox="0 0 395 395" style="enable-background:new 0 0 395 395;" xml:space="preserve" fill="#418FDE">
<g>
	<g>
		<path d="M284.127,81.551h-17.633c-13.893,0-27.235,6.579-35.696,17.599l-56.411,73.486v-3.424c0-8.961-7.263-16.223-16.222-16.223
			c-8.959,0-16.222,7.262-16.222,16.223v45.688l-6.564,8.55h-24.507c-24.813,0-45,20.187-45,45c0,24.813,20.187,45,45,45h26.693
			c13.893,0,27.236-6.579,35.695-17.599l95.418-124.3h15.447c24.813,0,45-20.187,45-45S308.94,81.551,284.127,81.551z
			 M284.127,151.551H263.75c-3.108,0-6.04,1.445-7.933,3.911l-98.421,128.211c-4.699,6.122-12.113,9.777-19.83,9.777h-26.693
			c-13.785,0-25-11.215-25-25c0-13.785,11.215-25,25-25h29.438c3.107,0,6.039-1.445,7.933-3.911l98.419-128.21
			c4.7-6.122,12.114-9.778,19.832-9.778h17.633c13.785,0,25,11.215,25,25C309.127,140.336,297.912,151.551,284.127,151.551z"/>
		<circle cx="158.165" cy="130.308" r="19.376"/>
		<path d="M283.418,264.425l-14.643,2.779l22.718-33.365c2.487-3.652,1.542-8.628-2.109-11.115c-3.653-2.487-8.63-1.543-11.115,2.11
			l-22.718,33.364l-2.781-14.643c-0.824-4.341-5.012-7.189-9.352-6.367c-4.341,0.824-7.191,5.011-6.367,9.352l6.385,33.616
			c0.729,3.836,4.084,6.509,7.85,6.509c0.495,0,0.997-0.046,1.5-0.142l33.616-6.379c4.341-0.824,7.192-5.011,6.368-9.352
			C291.946,266.454,287.761,263.604,283.418,264.425z"/>
	</g>
	<path d="M313.002,0H82C36.785,0,0,36.784,0,81.998v230.993C0,358.211,36.785,395,82,395h231.002
		C358.216,395,395,358.211,395,312.991V81.998C395,36.784,358.216,0,313.002,0z M380,312.991C380,349.94,349.944,380,313.002,380H82
		c-36.944,0-67-30.06-67-67.009V81.998C15,45.055,45.056,15,82,15h231.002C349.944,15,380,45.055,380,81.998V312.991z"/>
</g>
<g>
</g>
<g>
</g>
<g>
</g>
<g>
</g>
<g>
</g>
<g>
</g>
<g>
</g>
<g>
</g>
<g>
</g>
<g>
</g>
<g>
</g>
<g>
</g>
<g>
</g>
<g>
</g>
<g>
</g>
</svg>
