<?xml version="1.0" encoding="iso-8859-1"?>
<!-- Generator: Adobe Illustrator 19.0.0, SVG Export Plug-In . SVG Version: 6.00 Build 0)  -->
<svg version="1.1" id="Capa_1" xmlns="http://www.w3.org/2000/svg" xmlns:xlink="http://www.w3.org/1999/xlink" x="0px" y="0px"
	 viewBox="0 0 512 512" style="enable-background:new 0 0 512 512;" xml:space="preserve">
<g>
	<g>
		<path d="M466,90h-77.754c-34.673,0-68.599-9.609-98.13-27.773C260.107,43.762,218.98,30,176.254,30h-58.017
			C112.024,12.578,95.53,0,76,0C51.186,0,31,20.186,31,45v452c0,8.291,6.709,15,15,15h60c8.291,0,15-6.709,15-15V330h55.254
			c34.673,0,68.599,9.609,98.13,27.773C304.867,376.514,348.595,390,388.246,390H466c8.291,0,15-6.709,15-15V105
			C481,96.709,474.291,90,466,90z M181,210.328c-1.591-0.035-3.153-0.328-4.746-0.328H121v-60h55.254
			c1.595,0,3.155,0.287,4.746,0.328V210.328z M271,322.213c-19.03-9.245-39.168-15.753-60-19.133v-59.418
			c21.074,3.99,41.362,11.391,60,22.339V322.213z M271,142.213c-19.03-9.245-39.168-15.753-60-19.133V63.662
			c21.074,3.99,41.362,11.391,60,22.339V142.213z M361,267.913c-20.991-3.087-41.168-10.042-60-19.986v-56.215
			c19.091,8.372,39.309,13.788,60,16.404V267.913z M451,360h-60v-60h60V360z M451,180h-60v-60h60V180z"/>
	</g>
</g>
<g>
</g>
<g>
</g>
<g>
</g>
<g>
</g>
<g>
</g>
<g>
</g>
<g>
</g>
<g>
</g>
<g>
</g>
<g>
</g>
<g>
</g>
<g>
</g>
<g>
</g>
<g>
</g>
<g>
</g>
</svg>
