<?xml version="1.0" encoding="iso-8859-1"?>
<!-- Generator: Adobe Illustrator 19.0.0, SVG Export Plug-In . SVG Version: 6.00 Build 0)  -->
<svg version="1.1" id="Capa_1" xmlns="http://www.w3.org/2000/svg" xmlns:xlink="http://www.w3.org/1999/xlink" x="0px" y="0px"
	 viewBox="0 0 512 512" style="enable-background:new 0 0 512 512;" xml:space="preserve">
<g>
	<g>
		<path d="M466,90h-77.759c-34.67,0-68.603-9.604-98.13-27.775C255.233,40.761,215.699,30,176.259,30H118.42
			C112.228,12.542,95.555,0,75.995,0C51.185,0,31,20.187,31,45v452c0,8.284,6.716,15,15,15h60c8.284,0,15-6.716,15-15V330h55.259
			c34.67,0,68.603,9.604,98.13,27.775C307.977,378.447,347.287,390,388.241,390H466c8.284,0,15-6.716,15-15V105
			C481,96.716,474.284,90,466,90z M91,482H61V45c0-8.271,6.727-15,15.005-15C84.273,30,91,36.729,91,45C91,52.193,91,475.135,91,482
			z M181,300.058c-1.579-0.034-3.159-0.058-4.741-0.058H121v-60h55.259c1.583,0,3.162,0.042,4.741,0.082V300.058z M181,210.058
			c-1.579-0.034-3.159-0.058-4.741-0.058H121v-60h55.259c1.583,0,3.162,0.042,4.741,0.082V210.058z M181,120.058
			c-1.579-0.034-3.159-0.058-4.741-0.058H121V60h55.259c1.582,0,3.162,0.042,4.741,0.082V120.058z M271,321.752
			c-18.999-9.211-39.207-15.586-60-18.953v-59.524c21.07,3.977,41.363,11.558,60,22.494V321.752z M271,231.752
			c-18.999-9.211-39.207-15.586-60-18.953v-59.524c21.07,3.977,41.363,11.558,60,22.495V231.752z M271,141.752
			c-18.999-9.211-39.207-15.586-60-18.953V63.275c21.07,3.977,41.363,11.558,60,22.494V141.752z M361,357.99
			c-20.93-3.076-41.215-9.669-60-19.564v-56.711c19.097,8.377,39.3,13.952,60,16.566V357.99z M361,267.99
			c-20.93-3.076-41.215-9.669-60-19.564v-56.711c19.097,8.377,39.3,13.952,60,16.566V267.99z M361,177.991
			c-20.93-3.076-41.215-9.669-60-19.564v-56.711c19.097,8.377,39.3,13.952,60,16.566V177.991z M451,360h-60v-60h60V360z M451,270
			h-60v-60h60V270z M451,180h-60v-60h60V180z"/>
	</g>
</g>
<g>
</g>
<g>
</g>
<g>
</g>
<g>
</g>
<g>
</g>
<g>
</g>
<g>
</g>
<g>
</g>
<g>
</g>
<g>
</g>
<g>
</g>
<g>
</g>
<g>
</g>
<g>
</g>
<g>
</g>
</svg>
